ISO-10303-21;
HEADER;
/* Generated by software containing ST-Developer
 * from STEP Tools, Inc. (www.steptools.com) 
 */

FILE_DESCRIPTION(
/* description */ (''),
/* implementation_level */ '2;1');

FILE_NAME(
/* name */ 'FleetSniffer Top.step',
/* time_stamp */ '2026-05-29T14:55:53-04:00',
/* author */ (''),
/* organization */ (''),
/* preprocessor_version */ 'ST-DEVELOPER v20.1',
/* originating_system */ 'Autodesk Translation Framework v14.24.0.0',
/* authorisation */ '');

FILE_SCHEMA (('AUTOMOTIVE_DESIGN { 1 0 10303 214 3 1 1 }'));
ENDSEC;

DATA;
#10=MECHANICAL_DESIGN_GEOMETRIC_PRESENTATION_REPRESENTATION('',(#13),#1646);
#11=SHAPE_REPRESENTATION_RELATIONSHIP('SRR','None',#1653,#12);
#12=ADVANCED_BREP_SHAPE_REPRESENTATION('',(#14),#1645);
#13=STYLED_ITEM('',(#1662),#14);
#14=MANIFOLD_SOLID_BREP('Body2',#908);
#15=B_SPLINE_SURFACE_WITH_KNOTS('',3,3,((#1543,#1544,#1545,#1546,#1547),
(#1548,#1549,#1550,#1551,#1552),(#1553,#1554,#1555,#1556,#1557),(#1558,
#1559,#1560,#1561,#1562),(#1563,#1564,#1565,#1566,#1567),(#1568,#1569,#1570,
#1571,#1572)),.UNSPECIFIED.,.F.,.F.,.F.,(4,1,1,4),(4,1,4),(0.,0.285714285714286,
0.571428571428571,1.),(0.977300654213094,1.02126073845766,1.06522082270222),
 .UNSPECIFIED.);
#16=B_SPLINE_SURFACE_WITH_KNOTS('',3,3,((#1577,#1578,#1579,#1580,#1581),
(#1582,#1583,#1584,#1585,#1586),(#1587,#1588,#1589,#1590,#1591),(#1592,
#1593,#1594,#1595,#1596),(#1597,#1598,#1599,#1600,#1601),(#1602,#1603,#1604,
#1605,#1606)),.UNSPECIFIED.,.F.,.F.,.F.,(4,1,1,4),(4,1,4),(0.,0.285714285714286,
0.571428571428571,1.),(-1.43635103810807E-15,0.0439600842445567,0.0879201684891148),
 .UNSPECIFIED.);
#17=TOROIDAL_SURFACE('',#983,1.5,0.5);
#18=TOROIDAL_SURFACE('',#990,1.5,0.5);
#19=TOROIDAL_SURFACE('',#997,1.5,1.);
#20=TOROIDAL_SURFACE('',#1002,1.5,1.);
#21=B_SPLINE_CURVE_WITH_KNOTS('',3,(#1370,#1371,#1372,#1373,#1374),
 .UNSPECIFIED.,.F.,.F.,(4,1,4),(0.977300654213094,1.02126073845766,1.06522082270222),
 .UNSPECIFIED.);
#22=B_SPLINE_CURVE_WITH_KNOTS('',3,(#1440,#1441,#1442,#1443,#1444),
 .UNSPECIFIED.,.F.,.F.,(4,1,4),(-1.43635103810807E-15,0.0439600842445567,
0.0879201684891148),.UNSPECIFIED.);
#23=B_SPLINE_CURVE_WITH_KNOTS('',3,(#1528,#1529,#1530,#1531,#1532),
 .UNSPECIFIED.,.F.,.F.,(4,1,4),(-1.06522082270222,-1.02126073845766,-0.977300654213094),
 .UNSPECIFIED.);
#24=B_SPLINE_CURVE_WITH_KNOTS('',3,(#1609,#1610,#1611,#1612,#1613),
 .UNSPECIFIED.,.F.,.F.,(4,1,4),(-0.0879201684891148,-0.0439600842445567,
1.43635103810807E-15),.UNSPECIFIED.);
#25=CYLINDRICAL_SURFACE('',#934,2.);
#26=CYLINDRICAL_SURFACE('',#937,2.);
#27=CYLINDRICAL_SURFACE('',#940,2.);
#28=CYLINDRICAL_SURFACE('',#963,2.);
#29=CYLINDRICAL_SURFACE('',#972,2.);
#30=CYLINDRICAL_SURFACE('',#981,2.);
#31=CYLINDRICAL_SURFACE('',#988,0.5);
#32=CYLINDRICAL_SURFACE('',#995,0.5);
#33=CYLINDRICAL_SURFACE('',#1000,1.);
#34=CYLINDRICAL_SURFACE('',#1006,1.);
#35=CYLINDRICAL_SURFACE('',#1008,1.);
#36=CYLINDRICAL_SURFACE('',#1011,0.5);
#37=CYLINDRICAL_SURFACE('',#1013,2.);
#38=CYLINDRICAL_SURFACE('',#1015,2.);
#39=CYLINDRICAL_SURFACE('',#1019,2.);
#40=CYLINDRICAL_SURFACE('',#1021,2.);
#41=CIRCLE('',#925,2.);
#42=CIRCLE('',#926,2.25);
#43=CIRCLE('',#929,2.);
#44=CIRCLE('',#930,2.25);
#45=CIRCLE('',#935,2.);
#46=CIRCLE('',#938,2.);
#47=CIRCLE('',#941,2.);
#48=CIRCLE('',#942,2.);
#49=CIRCLE('',#943,2.);
#50=CIRCLE('',#945,2.);
#51=CIRCLE('',#946,1.75);
#52=CIRCLE('',#949,2.);
#53=CIRCLE('',#950,1.75);
#54=CIRCLE('',#953,2.);
#55=CIRCLE('',#954,1.75);
#56=CIRCLE('',#957,1.75);
#57=CIRCLE('',#961,1.5);
#58=CIRCLE('',#962,1.5);
#59=CIRCLE('',#964,2.);
#60=CIRCLE('',#965,2.);
#61=CIRCLE('',#968,1.);
#62=CIRCLE('',#969,2.);
#63=CIRCLE('',#970,2.);
#64=CIRCLE('',#971,1.);
#65=CIRCLE('',#973,2.);
#66=CIRCLE('',#976,1.);
#67=CIRCLE('',#977,2.);
#68=CIRCLE('',#978,2.);
#69=CIRCLE('',#979,1.);
#70=CIRCLE('',#980,2.);
#71=CIRCLE('',#984,0.5);
#72=CIRCLE('',#985,2.);
#73=CIRCLE('',#986,0.499999999999999);
#74=CIRCLE('',#987,1.5);
#75=CIRCLE('',#989,0.499999999999999);
#76=CIRCLE('',#991,0.500000000000003);
#77=CIRCLE('',#992,1.5);
#78=CIRCLE('',#993,2.);
#79=CIRCLE('',#996,0.5);
#80=CIRCLE('',#998,0.999999999999998);
#81=CIRCLE('',#999,0.999999999999996);
#82=CIRCLE('',#1001,0.999999999999996);
#83=CIRCLE('',#1003,0.999999999999996);
#84=CIRCLE('',#1004,0.5);
#85=CIRCLE('',#1005,1.);
#86=CIRCLE('',#1007,1.00000000000001);
#87=CIRCLE('',#1017,2.);
#88=CIRCLE('',#1018,2.);
#89=CONICAL_SURFACE('',#924,2.125,0.78539816339745);
#90=CONICAL_SURFACE('',#928,2.125,0.785398163397451);
#91=CONICAL_SURFACE('',#944,1.875,0.785398163397452);
#92=CONICAL_SURFACE('',#948,1.875,0.785398163397451);
#93=CONICAL_SURFACE('',#952,1.875,0.78539816339745);
#94=CONICAL_SURFACE('',#956,1.875,0.78539816339745);
#95=FACE_OUTER_BOUND('',#148,.T.);
#96=FACE_OUTER_BOUND('',#149,.T.);
#97=FACE_OUTER_BOUND('',#150,.T.);
#98=FACE_OUTER_BOUND('',#151,.T.);
#99=FACE_OUTER_BOUND('',#152,.T.);
#100=FACE_OUTER_BOUND('',#153,.T.);
#101=FACE_OUTER_BOUND('',#154,.T.);
#102=FACE_OUTER_BOUND('',#155,.T.);
#103=FACE_OUTER_BOUND('',#156,.T.);
#104=FACE_OUTER_BOUND('',#157,.T.);
#105=FACE_OUTER_BOUND('',#158,.T.);
#106=FACE_OUTER_BOUND('',#159,.T.);
#107=FACE_OUTER_BOUND('',#160,.T.);
#108=FACE_OUTER_BOUND('',#161,.T.);
#109=FACE_OUTER_BOUND('',#162,.T.);
#110=FACE_OUTER_BOUND('',#163,.T.);
#111=FACE_OUTER_BOUND('',#164,.T.);
#112=FACE_OUTER_BOUND('',#165,.T.);
#113=FACE_OUTER_BOUND('',#166,.T.);
#114=FACE_OUTER_BOUND('',#167,.T.);
#115=FACE_OUTER_BOUND('',#168,.T.);
#116=FACE_OUTER_BOUND('',#169,.T.);
#117=FACE_OUTER_BOUND('',#170,.T.);
#118=FACE_OUTER_BOUND('',#171,.T.);
#119=FACE_OUTER_BOUND('',#172,.T.);
#120=FACE_OUTER_BOUND('',#173,.T.);
#121=FACE_OUTER_BOUND('',#174,.T.);
#122=FACE_OUTER_BOUND('',#175,.T.);
#123=FACE_OUTER_BOUND('',#176,.T.);
#124=FACE_OUTER_BOUND('',#177,.T.);
#125=FACE_OUTER_BOUND('',#178,.T.);
#126=FACE_OUTER_BOUND('',#179,.T.);
#127=FACE_OUTER_BOUND('',#180,.T.);
#128=FACE_OUTER_BOUND('',#181,.T.);
#129=FACE_OUTER_BOUND('',#182,.T.);
#130=FACE_OUTER_BOUND('',#183,.T.);
#131=FACE_OUTER_BOUND('',#184,.T.);
#132=FACE_OUTER_BOUND('',#185,.T.);
#133=FACE_OUTER_BOUND('',#186,.T.);
#134=FACE_OUTER_BOUND('',#187,.T.);
#135=FACE_OUTER_BOUND('',#188,.T.);
#136=FACE_OUTER_BOUND('',#189,.T.);
#137=FACE_OUTER_BOUND('',#190,.T.);
#138=FACE_OUTER_BOUND('',#191,.T.);
#139=FACE_OUTER_BOUND('',#192,.T.);
#140=FACE_OUTER_BOUND('',#193,.T.);
#141=FACE_OUTER_BOUND('',#194,.T.);
#142=FACE_OUTER_BOUND('',#195,.T.);
#143=FACE_OUTER_BOUND('',#196,.T.);
#144=FACE_OUTER_BOUND('',#197,.T.);
#145=FACE_OUTER_BOUND('',#198,.T.);
#146=FACE_OUTER_BOUND('',#199,.T.);
#147=FACE_OUTER_BOUND('',#200,.T.);
#148=EDGE_LOOP('',(#568,#569,#570,#571));
#149=EDGE_LOOP('',(#572,#573,#574,#575));
#150=EDGE_LOOP('',(#576,#577,#578,#579));
#151=EDGE_LOOP('',(#580,#581,#582,#583));
#152=EDGE_LOOP('',(#584,#585,#586,#587));
#153=EDGE_LOOP('',(#588,#589,#590,#591));
#154=EDGE_LOOP('',(#592,#593,#594,#595));
#155=EDGE_LOOP('',(#596,#597,#598,#599));
#156=EDGE_LOOP('',(#600,#601,#602,#603));
#157=EDGE_LOOP('',(#604,#605,#606,#607));
#158=EDGE_LOOP('',(#608,#609,#610,#611,#612,#613,#614,#615,#616));
#159=EDGE_LOOP('',(#617,#618,#619,#620));
#160=EDGE_LOOP('',(#621,#622,#623,#624));
#161=EDGE_LOOP('',(#625,#626,#627,#628));
#162=EDGE_LOOP('',(#629,#630,#631,#632));
#163=EDGE_LOOP('',(#633,#634,#635,#636));
#164=EDGE_LOOP('',(#637,#638,#639,#640));
#165=EDGE_LOOP('',(#641,#642,#643,#644));
#166=EDGE_LOOP('',(#645,#646,#647,#648));
#167=EDGE_LOOP('',(#649,#650,#651,#652));
#168=EDGE_LOOP('',(#653,#654,#655,#656,#657,#658));
#169=EDGE_LOOP('',(#659,#660,#661,#662,#663,#664,#665,#666,#667));
#170=EDGE_LOOP('',(#668,#669,#670,#671,#672,#673,#674,#675));
#171=EDGE_LOOP('',(#676,#677,#678,#679,#680,#681,#682,#683,#684,#685,#686,
#687,#688,#689));
#172=EDGE_LOOP('',(#690,#691,#692,#693));
#173=EDGE_LOOP('',(#694,#695,#696,#697));
#174=EDGE_LOOP('',(#698,#699,#700,#701,#702,#703,#704,#705,#706,#707,#708,
#709));
#175=EDGE_LOOP('',(#710,#711,#712,#713));
#176=EDGE_LOOP('',(#714,#715,#716,#717));
#177=EDGE_LOOP('',(#718,#719,#720,#721));
#178=EDGE_LOOP('',(#722,#723,#724,#725));
#179=EDGE_LOOP('',(#726,#727,#728,#729));
#180=EDGE_LOOP('',(#730,#731,#732,#733,#734,#735));
#181=EDGE_LOOP('',(#736,#737,#738,#739,#740));
#182=EDGE_LOOP('',(#741,#742,#743,#744));
#183=EDGE_LOOP('',(#745,#746,#747,#748));
#184=EDGE_LOOP('',(#749,#750,#751,#752));
#185=EDGE_LOOP('',(#753,#754,#755,#756));
#186=EDGE_LOOP('',(#757,#758,#759,#760,#761,#762));
#187=EDGE_LOOP('',(#763,#764,#765,#766));
#188=EDGE_LOOP('',(#767,#768,#769,#770,#771,#772));
#189=EDGE_LOOP('',(#773,#774,#775,#776));
#190=EDGE_LOOP('',(#777,#778,#779,#780));
#191=EDGE_LOOP('',(#781,#782,#783,#784,#785));
#192=EDGE_LOOP('',(#786,#787,#788,#789));
#193=EDGE_LOOP('',(#790,#791,#792,#793));
#194=EDGE_LOOP('',(#794,#795,#796,#797));
#195=EDGE_LOOP('',(#798,#799,#800,#801));
#196=EDGE_LOOP('',(#802,#803,#804,#805,#806,#807,#808,#809,#810,#811,#812,
#813));
#197=EDGE_LOOP('',(#814,#815,#816,#817));
#198=EDGE_LOOP('',(#818,#819,#820,#821));
#199=EDGE_LOOP('',(#822,#823,#824,#825));
#200=EDGE_LOOP('',(#826,#827,#828,#829));
#201=LINE('',#1310,#278);
#202=LINE('',#1312,#279);
#203=LINE('',#1313,#280);
#204=LINE('',#1317,#281);
#205=LINE('',#1323,#282);
#206=LINE('',#1324,#283);
#207=LINE('',#1325,#284);
#208=LINE('',#1329,#285);
#209=LINE('',#1336,#286);
#210=LINE('',#1337,#287);
#211=LINE('',#1340,#288);
#212=LINE('',#1342,#289);
#213=LINE('',#1343,#290);
#214=LINE('',#1346,#291);
#215=LINE('',#1350,#292);
#216=LINE('',#1351,#293);
#217=LINE('',#1354,#294);
#218=LINE('',#1358,#295);
#219=LINE('',#1359,#296);
#220=LINE('',#1364,#297);
#221=LINE('',#1368,#298);
#222=LINE('',#1376,#299);
#223=LINE('',#1381,#300);
#224=LINE('',#1385,#301);
#225=LINE('',#1389,#302);
#226=LINE('',#1391,#303);
#227=LINE('',#1392,#304);
#228=LINE('',#1396,#305);
#229=LINE('',#1401,#306);
#230=LINE('',#1403,#307);
#231=LINE('',#1404,#308);
#232=LINE('',#1408,#309);
#233=LINE('',#1413,#310);
#234=LINE('',#1414,#311);
#235=LINE('',#1415,#312);
#236=LINE('',#1418,#313);
#237=LINE('',#1421,#314);
#238=LINE('',#1422,#315);
#239=LINE('',#1425,#316);
#240=LINE('',#1426,#317);
#241=LINE('',#1429,#318);
#242=LINE('',#1433,#319);
#243=LINE('',#1439,#320);
#244=LINE('',#1446,#321);
#245=LINE('',#1453,#322);
#246=LINE('',#1457,#323);
#247=LINE('',#1461,#324);
#248=LINE('',#1467,#325);
#249=LINE('',#1468,#326);
#250=LINE('',#1471,#327);
#251=LINE('',#1472,#328);
#252=LINE('',#1475,#329);
#253=LINE('',#1479,#330);
#254=LINE('',#1483,#331);
#255=LINE('',#1487,#332);
#256=LINE('',#1491,#333);
#257=LINE('',#1494,#334);
#258=LINE('',#1496,#335);
#259=LINE('',#1510,#336);
#260=LINE('',#1511,#337);
#261=LINE('',#1520,#338);
#262=LINE('',#1522,#339);
#263=LINE('',#1523,#340);
#264=LINE('',#1526,#341);
#265=LINE('',#1575,#342);
#266=LINE('',#1576,#343);
#267=LINE('',#1615,#344);
#268=LINE('',#1618,#345);
#269=LINE('',#1620,#346);
#270=LINE('',#1622,#347);
#271=LINE('',#1624,#348);
#272=LINE('',#1626,#349);
#273=LINE('',#1630,#350);
#274=LINE('',#1634,#351);
#275=LINE('',#1637,#352);
#276=LINE('',#1639,#353);
#277=LINE('',#1641,#354);
#278=VECTOR('',#1029,10.);
#279=VECTOR('',#1030,10.);
#280=VECTOR('',#1031,10.);
#281=VECTOR('',#1034,10.);
#282=VECTOR('',#1041,10.);
#283=VECTOR('',#1042,10.);
#284=VECTOR('',#1043,10.);
#285=VECTOR('',#1046,10.);
#286=VECTOR('',#1055,10.);
#287=VECTOR('',#1056,10.);
#288=VECTOR('',#1059,10.);
#289=VECTOR('',#1060,10.);
#290=VECTOR('',#1061,10.);
#291=VECTOR('',#1064,10.);
#292=VECTOR('',#1069,10.);
#293=VECTOR('',#1070,10.);
#294=VECTOR('',#1073,10.);
#295=VECTOR('',#1078,10.);
#296=VECTOR('',#1079,10.);
#297=VECTOR('',#1084,10.);
#298=VECTOR('',#1087,10.);
#299=VECTOR('',#1088,10.);
#300=VECTOR('',#1093,10.);
#301=VECTOR('',#1096,10.);
#302=VECTOR('',#1101,10.);
#303=VECTOR('',#1102,10.);
#304=VECTOR('',#1103,10.);
#305=VECTOR('',#1106,10.);
#306=VECTOR('',#1113,10.);
#307=VECTOR('',#1114,10.);
#308=VECTOR('',#1115,10.);
#309=VECTOR('',#1118,10.);
#310=VECTOR('',#1125,10.);
#311=VECTOR('',#1126,10.);
#312=VECTOR('',#1127,10.);
#313=VECTOR('',#1130,10.);
#314=VECTOR('',#1135,10.);
#315=VECTOR('',#1136,10.);
#316=VECTOR('',#1139,10.);
#317=VECTOR('',#1140,10.);
#318=VECTOR('',#1143,10.);
#319=VECTOR('',#1146,10.);
#320=VECTOR('',#1153,10.);
#321=VECTOR('',#1154,10.);
#322=VECTOR('',#1163,10.);
#323=VECTOR('',#1166,10.);
#324=VECTOR('',#1169,10.);
#325=VECTOR('',#1176,10.);
#326=VECTOR('',#1177,10.);
#327=VECTOR('',#1180,10.);
#328=VECTOR('',#1181,10.);
#329=VECTOR('',#1184,10.);
#330=VECTOR('',#1187,10.);
#331=VECTOR('',#1190,10.);
#332=VECTOR('',#1193,10.);
#333=VECTOR('',#1196,10.);
#334=VECTOR('',#1201,10.);
#335=VECTOR('',#1204,10.);
#336=VECTOR('',#1219,10.);
#337=VECTOR('',#1220,10.);
#338=VECTOR('',#1231,10.);
#339=VECTOR('',#1232,10.);
#340=VECTOR('',#1233,10.);
#341=VECTOR('',#1236,10.);
#342=VECTOR('',#1259,10.);
#343=VECTOR('',#1260,10.);
#344=VECTOR('',#1265,10.);
#345=VECTOR('',#1270,10.);
#346=VECTOR('',#1273,10.);
#347=VECTOR('',#1276,10.);
#348=VECTOR('',#1279,10.);
#349=VECTOR('',#1282,10.);
#350=VECTOR('',#1287,10.);
#351=VECTOR('',#1290,10.);
#352=VECTOR('',#1295,10.);
#353=VECTOR('',#1298,10.);
#354=VECTOR('',#1301,10.);
#355=ELLIPSE('',#923,2.82842712474617,2.);
#356=ELLIPSE('',#932,2.82842712474617,2.);
#357=VERTEX_POINT('',#1306);
#358=VERTEX_POINT('',#1307);
#359=VERTEX_POINT('',#1309);
#360=VERTEX_POINT('',#1311);
#361=VERTEX_POINT('',#1315);
#362=VERTEX_POINT('',#1316);
#363=VERTEX_POINT('',#1321);
#364=VERTEX_POINT('',#1322);
#365=VERTEX_POINT('',#1327);
#366=VERTEX_POINT('',#1328);
#367=VERTEX_POINT('',#1333);
#368=VERTEX_POINT('',#1334);
#369=VERTEX_POINT('',#1339);
#370=VERTEX_POINT('',#1341);
#371=VERTEX_POINT('',#1345);
#372=VERTEX_POINT('',#1349);
#373=VERTEX_POINT('',#1353);
#374=VERTEX_POINT('',#1357);
#375=VERTEX_POINT('',#1361);
#376=VERTEX_POINT('',#1363);
#377=VERTEX_POINT('',#1365);
#378=VERTEX_POINT('',#1367);
#379=VERTEX_POINT('',#1369);
#380=VERTEX_POINT('',#1375);
#381=VERTEX_POINT('',#1379);
#382=VERTEX_POINT('',#1380);
#383=VERTEX_POINT('',#1382);
#384=VERTEX_POINT('',#1384);
#385=VERTEX_POINT('',#1388);
#386=VERTEX_POINT('',#1390);
#387=VERTEX_POINT('',#1394);
#388=VERTEX_POINT('',#1395);
#389=VERTEX_POINT('',#1400);
#390=VERTEX_POINT('',#1402);
#391=VERTEX_POINT('',#1406);
#392=VERTEX_POINT('',#1407);
#393=VERTEX_POINT('',#1412);
#394=VERTEX_POINT('',#1417);
#395=VERTEX_POINT('',#1424);
#396=VERTEX_POINT('',#1428);
#397=VERTEX_POINT('',#1430);
#398=VERTEX_POINT('',#1432);
#399=VERTEX_POINT('',#1436);
#400=VERTEX_POINT('',#1438);
#401=VERTEX_POINT('',#1445);
#402=VERTEX_POINT('',#1450);
#403=VERTEX_POINT('',#1452);
#404=VERTEX_POINT('',#1454);
#405=VERTEX_POINT('',#1456);
#406=VERTEX_POINT('',#1458);
#407=VERTEX_POINT('',#1460);
#408=VERTEX_POINT('',#1464);
#409=VERTEX_POINT('',#1465);
#410=VERTEX_POINT('',#1470);
#411=VERTEX_POINT('',#1474);
#412=VERTEX_POINT('',#1476);
#413=VERTEX_POINT('',#1478);
#414=VERTEX_POINT('',#1480);
#415=VERTEX_POINT('',#1482);
#416=VERTEX_POINT('',#1484);
#417=VERTEX_POINT('',#1486);
#418=VERTEX_POINT('',#1488);
#419=VERTEX_POINT('',#1490);
#420=VERTEX_POINT('',#1498);
#421=VERTEX_POINT('',#1499);
#422=VERTEX_POINT('',#1501);
#423=VERTEX_POINT('',#1503);
#424=VERTEX_POINT('',#1507);
#425=VERTEX_POINT('',#1508);
#426=VERTEX_POINT('',#1513);
#427=VERTEX_POINT('',#1514);
#428=VERTEX_POINT('',#1519);
#429=VERTEX_POINT('',#1521);
#430=VERTEX_POINT('',#1525);
#431=VERTEX_POINT('',#1527);
#432=VERTEX_POINT('',#1540);
#433=VERTEX_POINT('',#1607);
#434=VERTEX_POINT('',#1629);
#435=VERTEX_POINT('',#1631);
#436=VERTEX_POINT('',#1633);
#437=EDGE_CURVE('',#357,#358,#355,.T.);
#438=EDGE_CURVE('',#358,#359,#201,.T.);
#439=EDGE_CURVE('',#359,#360,#202,.T.);
#440=EDGE_CURVE('',#360,#357,#203,.T.);
#441=EDGE_CURVE('',#361,#362,#204,.T.);
#442=EDGE_CURVE('',#362,#360,#41,.T.);
#443=EDGE_CURVE('',#359,#361,#42,.T.);
#444=EDGE_CURVE('',#363,#364,#205,.T.);
#445=EDGE_CURVE('',#364,#362,#206,.T.);
#446=EDGE_CURVE('',#361,#363,#207,.T.);
#447=EDGE_CURVE('',#365,#366,#208,.T.);
#448=EDGE_CURVE('',#366,#364,#43,.T.);
#449=EDGE_CURVE('',#363,#365,#44,.T.);
#450=EDGE_CURVE('',#367,#368,#356,.T.);
#451=EDGE_CURVE('',#368,#366,#209,.T.);
#452=EDGE_CURVE('',#365,#367,#210,.T.);
#453=EDGE_CURVE('',#369,#360,#211,.T.);
#454=EDGE_CURVE('',#369,#370,#212,.T.);
#455=EDGE_CURVE('',#357,#370,#213,.T.);
#456=EDGE_CURVE('',#362,#371,#214,.T.);
#457=EDGE_CURVE('',#369,#371,#45,.T.);
#458=EDGE_CURVE('',#372,#364,#215,.T.);
#459=EDGE_CURVE('',#372,#371,#216,.T.);
#460=EDGE_CURVE('',#366,#373,#217,.T.);
#461=EDGE_CURVE('',#372,#373,#46,.T.);
#462=EDGE_CURVE('',#374,#368,#218,.T.);
#463=EDGE_CURVE('',#374,#373,#219,.T.);
#464=EDGE_CURVE('',#367,#375,#47,.T.);
#465=EDGE_CURVE('',#375,#376,#220,.T.);
#466=EDGE_CURVE('',#377,#376,#48,.T.);
#467=EDGE_CURVE('',#377,#378,#221,.T.);
#468=EDGE_CURVE('',#379,#378,#21,.T.);
#469=EDGE_CURVE('',#380,#379,#222,.T.);
#470=EDGE_CURVE('',#380,#374,#49,.T.);
#471=EDGE_CURVE('',#381,#382,#223,.T.);
#472=EDGE_CURVE('',#382,#383,#50,.T.);
#473=EDGE_CURVE('',#383,#384,#224,.T.);
#474=EDGE_CURVE('',#384,#381,#51,.T.);
#475=EDGE_CURVE('',#381,#385,#225,.T.);
#476=EDGE_CURVE('',#385,#386,#226,.T.);
#477=EDGE_CURVE('',#386,#382,#227,.T.);
#478=EDGE_CURVE('',#387,#388,#228,.T.);
#479=EDGE_CURVE('',#388,#386,#52,.T.);
#480=EDGE_CURVE('',#385,#387,#53,.T.);
#481=EDGE_CURVE('',#387,#389,#229,.T.);
#482=EDGE_CURVE('',#389,#390,#230,.T.);
#483=EDGE_CURVE('',#390,#388,#231,.T.);
#484=EDGE_CURVE('',#391,#392,#232,.T.);
#485=EDGE_CURVE('',#392,#390,#54,.T.);
#486=EDGE_CURVE('',#389,#391,#55,.T.);
#487=EDGE_CURVE('',#391,#393,#233,.T.);
#488=EDGE_CURVE('',#393,#376,#234,.T.);
#489=EDGE_CURVE('',#376,#392,#235,.T.);
#490=EDGE_CURVE('',#394,#377,#236,.T.);
#491=EDGE_CURVE('',#393,#394,#56,.T.);
#492=EDGE_CURVE('',#394,#384,#237,.T.);
#493=EDGE_CURVE('',#383,#377,#238,.T.);
#494=EDGE_CURVE('',#395,#375,#239,.T.);
#495=EDGE_CURVE('',#392,#395,#240,.T.);
#496=EDGE_CURVE('',#396,#383,#241,.T.);
#497=EDGE_CURVE('',#397,#396,#57,.T.);
#498=EDGE_CURVE('',#398,#397,#242,.T.);
#499=EDGE_CURVE('',#378,#398,#58,.T.);
#500=EDGE_CURVE('',#370,#399,#59,.T.);
#501=EDGE_CURVE('',#400,#399,#243,.T.);
#502=EDGE_CURVE('',#396,#400,#22,.T.);
#503=EDGE_CURVE('',#382,#401,#244,.T.);
#504=EDGE_CURVE('',#401,#358,#60,.T.);
#505=EDGE_CURVE('',#402,#380,#61,.T.);
#506=EDGE_CURVE('',#403,#402,#245,.T.);
#507=EDGE_CURVE('',#404,#403,#62,.F.);
#508=EDGE_CURVE('',#405,#404,#246,.T.);
#509=EDGE_CURVE('',#406,#405,#63,.F.);
#510=EDGE_CURVE('',#407,#406,#247,.T.);
#511=EDGE_CURVE('',#399,#407,#64,.T.);
#512=EDGE_CURVE('',#408,#409,#65,.T.);
#513=EDGE_CURVE('',#409,#404,#248,.T.);
#514=EDGE_CURVE('',#403,#408,#249,.T.);
#515=EDGE_CURVE('',#409,#410,#250,.T.);
#516=EDGE_CURVE('',#405,#410,#251,.T.);
#517=EDGE_CURVE('',#408,#411,#252,.T.);
#518=EDGE_CURVE('',#412,#411,#66,.T.);
#519=EDGE_CURVE('',#413,#412,#253,.F.);
#520=EDGE_CURVE('',#414,#413,#67,.T.);
#521=EDGE_CURVE('',#414,#415,#254,.T.);
#522=EDGE_CURVE('',#416,#415,#68,.T.);
#523=EDGE_CURVE('',#416,#417,#255,.T.);
#524=EDGE_CURVE('',#418,#417,#69,.T.);
#525=EDGE_CURVE('',#419,#418,#256,.T.);
#526=EDGE_CURVE('',#410,#419,#70,.T.);
#527=EDGE_CURVE('',#419,#406,#257,.T.);
#528=EDGE_CURVE('',#407,#418,#258,.T.);
#529=EDGE_CURVE('',#420,#421,#71,.T.);
#530=EDGE_CURVE('',#421,#422,#72,.T.);
#531=EDGE_CURVE('',#422,#423,#73,.T.);
#532=EDGE_CURVE('',#423,#420,#74,.T.);
#533=EDGE_CURVE('',#424,#425,#75,.T.);
#534=EDGE_CURVE('',#425,#423,#259,.T.);
#535=EDGE_CURVE('',#422,#424,#260,.T.);
#536=EDGE_CURVE('',#426,#427,#76,.T.);
#537=EDGE_CURVE('',#427,#425,#77,.T.);
#538=EDGE_CURVE('',#424,#426,#78,.T.);
#539=EDGE_CURVE('',#428,#427,#261,.T.);
#540=EDGE_CURVE('',#429,#428,#262,.T.);
#541=EDGE_CURVE('',#420,#429,#263,.T.);
#542=EDGE_CURVE('',#426,#430,#264,.T.);
#543=EDGE_CURVE('',#431,#430,#23,.T.);
#544=EDGE_CURVE('',#428,#431,#79,.T.);
#545=EDGE_CURVE('',#431,#378,#80,.T.);
#546=EDGE_CURVE('',#398,#428,#81,.T.);
#547=EDGE_CURVE('',#397,#429,#82,.T.);
#548=EDGE_CURVE('',#396,#432,#83,.T.);
#549=EDGE_CURVE('',#432,#429,#84,.T.);
#550=EDGE_CURVE('',#430,#379,#85,.T.);
#551=EDGE_CURVE('',#430,#412,#265,.T.);
#552=EDGE_CURVE('',#411,#402,#266,.T.);
#553=EDGE_CURVE('',#400,#433,#86,.T.);
#554=EDGE_CURVE('',#433,#432,#24,.T.);
#555=EDGE_CURVE('',#417,#433,#267,.T.);
#556=EDGE_CURVE('',#413,#426,#268,.T.);
#557=EDGE_CURVE('',#433,#421,#269,.T.);
#558=EDGE_CURVE('',#421,#416,#270,.T.);
#559=EDGE_CURVE('',#424,#414,#271,.T.);
#560=EDGE_CURVE('',#415,#422,#272,.T.);
#561=EDGE_CURVE('',#401,#434,#273,.T.);
#562=EDGE_CURVE('',#435,#434,#87,.T.);
#563=EDGE_CURVE('',#435,#436,#274,.T.);
#564=EDGE_CURVE('',#395,#436,#88,.T.);
#565=EDGE_CURVE('',#436,#390,#275,.T.);
#566=EDGE_CURVE('',#388,#435,#276,.T.);
#567=EDGE_CURVE('',#434,#386,#277,.T.);
#568=ORIENTED_EDGE('',*,*,#437,.T.);
#569=ORIENTED_EDGE('',*,*,#438,.T.);
#570=ORIENTED_EDGE('',*,*,#439,.T.);
#571=ORIENTED_EDGE('',*,*,#440,.T.);
#572=ORIENTED_EDGE('',*,*,#441,.T.);
#573=ORIENTED_EDGE('',*,*,#442,.T.);
#574=ORIENTED_EDGE('',*,*,#439,.F.);
#575=ORIENTED_EDGE('',*,*,#443,.T.);
#576=ORIENTED_EDGE('',*,*,#444,.T.);
#577=ORIENTED_EDGE('',*,*,#445,.T.);
#578=ORIENTED_EDGE('',*,*,#441,.F.);
#579=ORIENTED_EDGE('',*,*,#446,.T.);
#580=ORIENTED_EDGE('',*,*,#447,.T.);
#581=ORIENTED_EDGE('',*,*,#448,.T.);
#582=ORIENTED_EDGE('',*,*,#444,.F.);
#583=ORIENTED_EDGE('',*,*,#449,.T.);
#584=ORIENTED_EDGE('',*,*,#450,.T.);
#585=ORIENTED_EDGE('',*,*,#451,.T.);
#586=ORIENTED_EDGE('',*,*,#447,.F.);
#587=ORIENTED_EDGE('',*,*,#452,.T.);
#588=ORIENTED_EDGE('',*,*,#440,.F.);
#589=ORIENTED_EDGE('',*,*,#453,.F.);
#590=ORIENTED_EDGE('',*,*,#454,.T.);
#591=ORIENTED_EDGE('',*,*,#455,.F.);
#592=ORIENTED_EDGE('',*,*,#442,.F.);
#593=ORIENTED_EDGE('',*,*,#456,.T.);
#594=ORIENTED_EDGE('',*,*,#457,.F.);
#595=ORIENTED_EDGE('',*,*,#453,.T.);
#596=ORIENTED_EDGE('',*,*,#445,.F.);
#597=ORIENTED_EDGE('',*,*,#458,.F.);
#598=ORIENTED_EDGE('',*,*,#459,.T.);
#599=ORIENTED_EDGE('',*,*,#456,.F.);
#600=ORIENTED_EDGE('',*,*,#448,.F.);
#601=ORIENTED_EDGE('',*,*,#460,.T.);
#602=ORIENTED_EDGE('',*,*,#461,.F.);
#603=ORIENTED_EDGE('',*,*,#458,.T.);
#604=ORIENTED_EDGE('',*,*,#451,.F.);
#605=ORIENTED_EDGE('',*,*,#462,.F.);
#606=ORIENTED_EDGE('',*,*,#463,.T.);
#607=ORIENTED_EDGE('',*,*,#460,.F.);
#608=ORIENTED_EDGE('',*,*,#450,.F.);
#609=ORIENTED_EDGE('',*,*,#464,.T.);
#610=ORIENTED_EDGE('',*,*,#465,.T.);
#611=ORIENTED_EDGE('',*,*,#466,.F.);
#612=ORIENTED_EDGE('',*,*,#467,.T.);
#613=ORIENTED_EDGE('',*,*,#468,.F.);
#614=ORIENTED_EDGE('',*,*,#469,.F.);
#615=ORIENTED_EDGE('',*,*,#470,.T.);
#616=ORIENTED_EDGE('',*,*,#462,.T.);
#617=ORIENTED_EDGE('',*,*,#471,.T.);
#618=ORIENTED_EDGE('',*,*,#472,.T.);
#619=ORIENTED_EDGE('',*,*,#473,.T.);
#620=ORIENTED_EDGE('',*,*,#474,.T.);
#621=ORIENTED_EDGE('',*,*,#471,.F.);
#622=ORIENTED_EDGE('',*,*,#475,.T.);
#623=ORIENTED_EDGE('',*,*,#476,.T.);
#624=ORIENTED_EDGE('',*,*,#477,.T.);
#625=ORIENTED_EDGE('',*,*,#478,.T.);
#626=ORIENTED_EDGE('',*,*,#479,.T.);
#627=ORIENTED_EDGE('',*,*,#476,.F.);
#628=ORIENTED_EDGE('',*,*,#480,.T.);
#629=ORIENTED_EDGE('',*,*,#478,.F.);
#630=ORIENTED_EDGE('',*,*,#481,.T.);
#631=ORIENTED_EDGE('',*,*,#482,.T.);
#632=ORIENTED_EDGE('',*,*,#483,.T.);
#633=ORIENTED_EDGE('',*,*,#484,.T.);
#634=ORIENTED_EDGE('',*,*,#485,.T.);
#635=ORIENTED_EDGE('',*,*,#482,.F.);
#636=ORIENTED_EDGE('',*,*,#486,.T.);
#637=ORIENTED_EDGE('',*,*,#484,.F.);
#638=ORIENTED_EDGE('',*,*,#487,.T.);
#639=ORIENTED_EDGE('',*,*,#488,.T.);
#640=ORIENTED_EDGE('',*,*,#489,.T.);
#641=ORIENTED_EDGE('',*,*,#490,.T.);
#642=ORIENTED_EDGE('',*,*,#466,.T.);
#643=ORIENTED_EDGE('',*,*,#488,.F.);
#644=ORIENTED_EDGE('',*,*,#491,.T.);
#645=ORIENTED_EDGE('',*,*,#490,.F.);
#646=ORIENTED_EDGE('',*,*,#492,.T.);
#647=ORIENTED_EDGE('',*,*,#473,.F.);
#648=ORIENTED_EDGE('',*,*,#493,.T.);
#649=ORIENTED_EDGE('',*,*,#489,.F.);
#650=ORIENTED_EDGE('',*,*,#465,.F.);
#651=ORIENTED_EDGE('',*,*,#494,.F.);
#652=ORIENTED_EDGE('',*,*,#495,.F.);
#653=ORIENTED_EDGE('',*,*,#493,.F.);
#654=ORIENTED_EDGE('',*,*,#496,.F.);
#655=ORIENTED_EDGE('',*,*,#497,.F.);
#656=ORIENTED_EDGE('',*,*,#498,.F.);
#657=ORIENTED_EDGE('',*,*,#499,.F.);
#658=ORIENTED_EDGE('',*,*,#467,.F.);
#659=ORIENTED_EDGE('',*,*,#437,.F.);
#660=ORIENTED_EDGE('',*,*,#455,.T.);
#661=ORIENTED_EDGE('',*,*,#500,.T.);
#662=ORIENTED_EDGE('',*,*,#501,.F.);
#663=ORIENTED_EDGE('',*,*,#502,.F.);
#664=ORIENTED_EDGE('',*,*,#496,.T.);
#665=ORIENTED_EDGE('',*,*,#472,.F.);
#666=ORIENTED_EDGE('',*,*,#503,.T.);
#667=ORIENTED_EDGE('',*,*,#504,.T.);
#668=ORIENTED_EDGE('',*,*,#474,.F.);
#669=ORIENTED_EDGE('',*,*,#492,.F.);
#670=ORIENTED_EDGE('',*,*,#491,.F.);
#671=ORIENTED_EDGE('',*,*,#487,.F.);
#672=ORIENTED_EDGE('',*,*,#486,.F.);
#673=ORIENTED_EDGE('',*,*,#481,.F.);
#674=ORIENTED_EDGE('',*,*,#480,.F.);
#675=ORIENTED_EDGE('',*,*,#475,.F.);
#676=ORIENTED_EDGE('',*,*,#457,.T.);
#677=ORIENTED_EDGE('',*,*,#459,.F.);
#678=ORIENTED_EDGE('',*,*,#461,.T.);
#679=ORIENTED_EDGE('',*,*,#463,.F.);
#680=ORIENTED_EDGE('',*,*,#470,.F.);
#681=ORIENTED_EDGE('',*,*,#505,.F.);
#682=ORIENTED_EDGE('',*,*,#506,.F.);
#683=ORIENTED_EDGE('',*,*,#507,.F.);
#684=ORIENTED_EDGE('',*,*,#508,.F.);
#685=ORIENTED_EDGE('',*,*,#509,.F.);
#686=ORIENTED_EDGE('',*,*,#510,.F.);
#687=ORIENTED_EDGE('',*,*,#511,.F.);
#688=ORIENTED_EDGE('',*,*,#500,.F.);
#689=ORIENTED_EDGE('',*,*,#454,.F.);
#690=ORIENTED_EDGE('',*,*,#512,.T.);
#691=ORIENTED_EDGE('',*,*,#513,.T.);
#692=ORIENTED_EDGE('',*,*,#507,.T.);
#693=ORIENTED_EDGE('',*,*,#514,.T.);
#694=ORIENTED_EDGE('',*,*,#513,.F.);
#695=ORIENTED_EDGE('',*,*,#515,.T.);
#696=ORIENTED_EDGE('',*,*,#516,.F.);
#697=ORIENTED_EDGE('',*,*,#508,.T.);
#698=ORIENTED_EDGE('',*,*,#512,.F.);
#699=ORIENTED_EDGE('',*,*,#517,.T.);
#700=ORIENTED_EDGE('',*,*,#518,.F.);
#701=ORIENTED_EDGE('',*,*,#519,.F.);
#702=ORIENTED_EDGE('',*,*,#520,.F.);
#703=ORIENTED_EDGE('',*,*,#521,.T.);
#704=ORIENTED_EDGE('',*,*,#522,.F.);
#705=ORIENTED_EDGE('',*,*,#523,.T.);
#706=ORIENTED_EDGE('',*,*,#524,.F.);
#707=ORIENTED_EDGE('',*,*,#525,.F.);
#708=ORIENTED_EDGE('',*,*,#526,.F.);
#709=ORIENTED_EDGE('',*,*,#515,.F.);
#710=ORIENTED_EDGE('',*,*,#526,.T.);
#711=ORIENTED_EDGE('',*,*,#527,.T.);
#712=ORIENTED_EDGE('',*,*,#509,.T.);
#713=ORIENTED_EDGE('',*,*,#516,.T.);
#714=ORIENTED_EDGE('',*,*,#527,.F.);
#715=ORIENTED_EDGE('',*,*,#525,.T.);
#716=ORIENTED_EDGE('',*,*,#528,.F.);
#717=ORIENTED_EDGE('',*,*,#510,.T.);
#718=ORIENTED_EDGE('',*,*,#529,.T.);
#719=ORIENTED_EDGE('',*,*,#530,.T.);
#720=ORIENTED_EDGE('',*,*,#531,.T.);
#721=ORIENTED_EDGE('',*,*,#532,.T.);
#722=ORIENTED_EDGE('',*,*,#533,.T.);
#723=ORIENTED_EDGE('',*,*,#534,.T.);
#724=ORIENTED_EDGE('',*,*,#531,.F.);
#725=ORIENTED_EDGE('',*,*,#535,.T.);
#726=ORIENTED_EDGE('',*,*,#536,.T.);
#727=ORIENTED_EDGE('',*,*,#537,.T.);
#728=ORIENTED_EDGE('',*,*,#533,.F.);
#729=ORIENTED_EDGE('',*,*,#538,.T.);
#730=ORIENTED_EDGE('',*,*,#532,.F.);
#731=ORIENTED_EDGE('',*,*,#534,.F.);
#732=ORIENTED_EDGE('',*,*,#537,.F.);
#733=ORIENTED_EDGE('',*,*,#539,.F.);
#734=ORIENTED_EDGE('',*,*,#540,.F.);
#735=ORIENTED_EDGE('',*,*,#541,.F.);
#736=ORIENTED_EDGE('',*,*,#536,.F.);
#737=ORIENTED_EDGE('',*,*,#542,.T.);
#738=ORIENTED_EDGE('',*,*,#543,.F.);
#739=ORIENTED_EDGE('',*,*,#544,.F.);
#740=ORIENTED_EDGE('',*,*,#539,.T.);
#741=ORIENTED_EDGE('',*,*,#545,.T.);
#742=ORIENTED_EDGE('',*,*,#499,.T.);
#743=ORIENTED_EDGE('',*,*,#546,.T.);
#744=ORIENTED_EDGE('',*,*,#544,.T.);
#745=ORIENTED_EDGE('',*,*,#547,.T.);
#746=ORIENTED_EDGE('',*,*,#540,.T.);
#747=ORIENTED_EDGE('',*,*,#546,.F.);
#748=ORIENTED_EDGE('',*,*,#498,.T.);
#749=ORIENTED_EDGE('',*,*,#547,.F.);
#750=ORIENTED_EDGE('',*,*,#497,.T.);
#751=ORIENTED_EDGE('',*,*,#548,.T.);
#752=ORIENTED_EDGE('',*,*,#549,.T.);
#753=ORIENTED_EDGE('',*,*,#550,.T.);
#754=ORIENTED_EDGE('',*,*,#468,.T.);
#755=ORIENTED_EDGE('',*,*,#545,.F.);
#756=ORIENTED_EDGE('',*,*,#543,.T.);
#757=ORIENTED_EDGE('',*,*,#505,.T.);
#758=ORIENTED_EDGE('',*,*,#469,.T.);
#759=ORIENTED_EDGE('',*,*,#550,.F.);
#760=ORIENTED_EDGE('',*,*,#551,.T.);
#761=ORIENTED_EDGE('',*,*,#518,.T.);
#762=ORIENTED_EDGE('',*,*,#552,.T.);
#763=ORIENTED_EDGE('',*,*,#553,.T.);
#764=ORIENTED_EDGE('',*,*,#554,.T.);
#765=ORIENTED_EDGE('',*,*,#548,.F.);
#766=ORIENTED_EDGE('',*,*,#502,.T.);
#767=ORIENTED_EDGE('',*,*,#524,.T.);
#768=ORIENTED_EDGE('',*,*,#555,.T.);
#769=ORIENTED_EDGE('',*,*,#553,.F.);
#770=ORIENTED_EDGE('',*,*,#501,.T.);
#771=ORIENTED_EDGE('',*,*,#511,.T.);
#772=ORIENTED_EDGE('',*,*,#528,.T.);
#773=ORIENTED_EDGE('',*,*,#514,.F.);
#774=ORIENTED_EDGE('',*,*,#506,.T.);
#775=ORIENTED_EDGE('',*,*,#552,.F.);
#776=ORIENTED_EDGE('',*,*,#517,.F.);
#777=ORIENTED_EDGE('',*,*,#551,.F.);
#778=ORIENTED_EDGE('',*,*,#542,.F.);
#779=ORIENTED_EDGE('',*,*,#556,.F.);
#780=ORIENTED_EDGE('',*,*,#519,.T.);
#781=ORIENTED_EDGE('',*,*,#529,.F.);
#782=ORIENTED_EDGE('',*,*,#541,.T.);
#783=ORIENTED_EDGE('',*,*,#549,.F.);
#784=ORIENTED_EDGE('',*,*,#554,.F.);
#785=ORIENTED_EDGE('',*,*,#557,.T.);
#786=ORIENTED_EDGE('',*,*,#555,.F.);
#787=ORIENTED_EDGE('',*,*,#523,.F.);
#788=ORIENTED_EDGE('',*,*,#558,.F.);
#789=ORIENTED_EDGE('',*,*,#557,.F.);
#790=ORIENTED_EDGE('',*,*,#538,.F.);
#791=ORIENTED_EDGE('',*,*,#559,.T.);
#792=ORIENTED_EDGE('',*,*,#520,.T.);
#793=ORIENTED_EDGE('',*,*,#556,.T.);
#794=ORIENTED_EDGE('',*,*,#535,.F.);
#795=ORIENTED_EDGE('',*,*,#560,.F.);
#796=ORIENTED_EDGE('',*,*,#521,.F.);
#797=ORIENTED_EDGE('',*,*,#559,.F.);
#798=ORIENTED_EDGE('',*,*,#530,.F.);
#799=ORIENTED_EDGE('',*,*,#558,.T.);
#800=ORIENTED_EDGE('',*,*,#522,.T.);
#801=ORIENTED_EDGE('',*,*,#560,.T.);
#802=ORIENTED_EDGE('',*,*,#438,.F.);
#803=ORIENTED_EDGE('',*,*,#504,.F.);
#804=ORIENTED_EDGE('',*,*,#561,.T.);
#805=ORIENTED_EDGE('',*,*,#562,.F.);
#806=ORIENTED_EDGE('',*,*,#563,.T.);
#807=ORIENTED_EDGE('',*,*,#564,.F.);
#808=ORIENTED_EDGE('',*,*,#494,.T.);
#809=ORIENTED_EDGE('',*,*,#464,.F.);
#810=ORIENTED_EDGE('',*,*,#452,.F.);
#811=ORIENTED_EDGE('',*,*,#449,.F.);
#812=ORIENTED_EDGE('',*,*,#446,.F.);
#813=ORIENTED_EDGE('',*,*,#443,.F.);
#814=ORIENTED_EDGE('',*,*,#485,.F.);
#815=ORIENTED_EDGE('',*,*,#495,.T.);
#816=ORIENTED_EDGE('',*,*,#564,.T.);
#817=ORIENTED_EDGE('',*,*,#565,.T.);
#818=ORIENTED_EDGE('',*,*,#483,.F.);
#819=ORIENTED_EDGE('',*,*,#565,.F.);
#820=ORIENTED_EDGE('',*,*,#563,.F.);
#821=ORIENTED_EDGE('',*,*,#566,.F.);
#822=ORIENTED_EDGE('',*,*,#479,.F.);
#823=ORIENTED_EDGE('',*,*,#566,.T.);
#824=ORIENTED_EDGE('',*,*,#562,.T.);
#825=ORIENTED_EDGE('',*,*,#567,.T.);
#826=ORIENTED_EDGE('',*,*,#477,.F.);
#827=ORIENTED_EDGE('',*,*,#567,.F.);
#828=ORIENTED_EDGE('',*,*,#561,.F.);
#829=ORIENTED_EDGE('',*,*,#503,.F.);
#830=PLANE('',#922);
#831=PLANE('',#927);
#832=PLANE('',#931);
#833=PLANE('',#933);
#834=PLANE('',#936);
#835=PLANE('',#939);
#836=PLANE('',#947);
#837=PLANE('',#951);
#838=PLANE('',#955);
#839=PLANE('',#958);
#840=PLANE('',#959);
#841=PLANE('',#960);
#842=PLANE('',#966);
#843=PLANE('',#967);
#844=PLANE('',#974);
#845=PLANE('',#975);
#846=PLANE('',#982);
#847=PLANE('',#994);
#848=PLANE('',#1009);
#849=PLANE('',#1010);
#850=PLANE('',#1012);
#851=PLANE('',#1014);
#852=PLANE('',#1016);
#853=PLANE('',#1020);
#854=PLANE('',#1022);
#855=ADVANCED_FACE('',(#95),#830,.T.);
#856=ADVANCED_FACE('',(#96),#89,.F.);
#857=ADVANCED_FACE('',(#97),#831,.T.);
#858=ADVANCED_FACE('',(#98),#90,.F.);
#859=ADVANCED_FACE('',(#99),#832,.T.);
#860=ADVANCED_FACE('',(#100),#833,.T.);
#861=ADVANCED_FACE('',(#101),#25,.F.);
#862=ADVANCED_FACE('',(#102),#834,.T.);
#863=ADVANCED_FACE('',(#103),#26,.F.);
#864=ADVANCED_FACE('',(#104),#835,.T.);
#865=ADVANCED_FACE('',(#105),#27,.T.);
#866=ADVANCED_FACE('',(#106),#91,.T.);
#867=ADVANCED_FACE('',(#107),#836,.T.);
#868=ADVANCED_FACE('',(#108),#92,.T.);
#869=ADVANCED_FACE('',(#109),#837,.T.);
#870=ADVANCED_FACE('',(#110),#93,.T.);
#871=ADVANCED_FACE('',(#111),#838,.T.);
#872=ADVANCED_FACE('',(#112),#94,.T.);
#873=ADVANCED_FACE('',(#113),#839,.T.);
#874=ADVANCED_FACE('',(#114),#840,.T.);
#875=ADVANCED_FACE('',(#115),#841,.T.);
#876=ADVANCED_FACE('',(#116),#28,.T.);
#877=ADVANCED_FACE('',(#117),#842,.T.);
#878=ADVANCED_FACE('',(#118),#843,.T.);
#879=ADVANCED_FACE('',(#119),#29,.T.);
#880=ADVANCED_FACE('',(#120),#844,.T.);
#881=ADVANCED_FACE('',(#121),#845,.F.);
#882=ADVANCED_FACE('',(#122),#30,.T.);
#883=ADVANCED_FACE('',(#123),#846,.T.);
#884=ADVANCED_FACE('',(#124),#17,.F.);
#885=ADVANCED_FACE('',(#125),#31,.F.);
#886=ADVANCED_FACE('',(#126),#18,.F.);
#887=ADVANCED_FACE('',(#127),#847,.F.);
#888=ADVANCED_FACE('',(#128),#32,.F.);
#889=ADVANCED_FACE('',(#129),#19,.T.);
#890=ADVANCED_FACE('',(#130),#33,.T.);
#891=ADVANCED_FACE('',(#131),#20,.T.);
#892=ADVANCED_FACE('',(#132),#15,.F.);
#893=ADVANCED_FACE('',(#133),#34,.T.);
#894=ADVANCED_FACE('',(#134),#16,.F.);
#895=ADVANCED_FACE('',(#135),#35,.T.);
#896=ADVANCED_FACE('',(#136),#848,.T.);
#897=ADVANCED_FACE('',(#137),#849,.T.);
#898=ADVANCED_FACE('',(#138),#36,.F.);
#899=ADVANCED_FACE('',(#139),#850,.T.);
#900=ADVANCED_FACE('',(#140),#37,.F.);
#901=ADVANCED_FACE('',(#141),#851,.T.);
#902=ADVANCED_FACE('',(#142),#38,.F.);
#903=ADVANCED_FACE('',(#143),#852,.F.);
#904=ADVANCED_FACE('',(#144),#39,.T.);
#905=ADVANCED_FACE('',(#145),#853,.T.);
#906=ADVANCED_FACE('',(#146),#40,.T.);
#907=ADVANCED_FACE('',(#147),#854,.T.);
#908=CLOSED_SHELL('',(#855,#856,#857,#858,#859,#860,#861,#862,#863,#864,
#865,#866,#867,#868,#869,#870,#871,#872,#873,#874,#875,#876,#877,#878,#879,
#880,#881,#882,#883,#884,#885,#886,#887,#888,#889,#890,#891,#892,#893,#894,
#895,#896,#897,#898,#899,#900,#901,#902,#903,#904,#905,#906,#907));
#909=DERIVED_UNIT_ELEMENT(#911,1.);
#910=DERIVED_UNIT_ELEMENT(#1648,-3.);
#911=(
MASS_UNIT()
NAMED_UNIT(*)
SI_UNIT(.KILO.,.GRAM.)
);
#912=DERIVED_UNIT((#909,#910));
#913=MEASURE_REPRESENTATION_ITEM('density measure',
POSITIVE_RATIO_MEASURE(1290.),#912);
#914=PROPERTY_DEFINITION_REPRESENTATION(#919,#916);
#915=PROPERTY_DEFINITION_REPRESENTATION(#920,#917);
#916=REPRESENTATION('material name',(#918),#1645);
#917=REPRESENTATION('density',(#913),#1645);
#918=DESCRIPTIVE_REPRESENTATION_ITEM('Plastic','Plastic');
#919=PROPERTY_DEFINITION('material property','material name',#1655);
#920=PROPERTY_DEFINITION('material property','density of part',#1655);
#921=AXIS2_PLACEMENT_3D('',#1304,#1023,#1024);
#922=AXIS2_PLACEMENT_3D('',#1305,#1025,#1026);
#923=AXIS2_PLACEMENT_3D('',#1308,#1027,#1028);
#924=AXIS2_PLACEMENT_3D('',#1314,#1032,#1033);
#925=AXIS2_PLACEMENT_3D('',#1318,#1035,#1036);
#926=AXIS2_PLACEMENT_3D('',#1319,#1037,#1038);
#927=AXIS2_PLACEMENT_3D('',#1320,#1039,#1040);
#928=AXIS2_PLACEMENT_3D('',#1326,#1044,#1045);
#929=AXIS2_PLACEMENT_3D('',#1330,#1047,#1048);
#930=AXIS2_PLACEMENT_3D('',#1331,#1049,#1050);
#931=AXIS2_PLACEMENT_3D('',#1332,#1051,#1052);
#932=AXIS2_PLACEMENT_3D('',#1335,#1053,#1054);
#933=AXIS2_PLACEMENT_3D('',#1338,#1057,#1058);
#934=AXIS2_PLACEMENT_3D('',#1344,#1062,#1063);
#935=AXIS2_PLACEMENT_3D('',#1347,#1065,#1066);
#936=AXIS2_PLACEMENT_3D('',#1348,#1067,#1068);
#937=AXIS2_PLACEMENT_3D('',#1352,#1071,#1072);
#938=AXIS2_PLACEMENT_3D('',#1355,#1074,#1075);
#939=AXIS2_PLACEMENT_3D('',#1356,#1076,#1077);
#940=AXIS2_PLACEMENT_3D('',#1360,#1080,#1081);
#941=AXIS2_PLACEMENT_3D('',#1362,#1082,#1083);
#942=AXIS2_PLACEMENT_3D('',#1366,#1085,#1086);
#943=AXIS2_PLACEMENT_3D('',#1377,#1089,#1090);
#944=AXIS2_PLACEMENT_3D('',#1378,#1091,#1092);
#945=AXIS2_PLACEMENT_3D('',#1383,#1094,#1095);
#946=AXIS2_PLACEMENT_3D('',#1386,#1097,#1098);
#947=AXIS2_PLACEMENT_3D('',#1387,#1099,#1100);
#948=AXIS2_PLACEMENT_3D('',#1393,#1104,#1105);
#949=AXIS2_PLACEMENT_3D('',#1397,#1107,#1108);
#950=AXIS2_PLACEMENT_3D('',#1398,#1109,#1110);
#951=AXIS2_PLACEMENT_3D('',#1399,#1111,#1112);
#952=AXIS2_PLACEMENT_3D('',#1405,#1116,#1117);
#953=AXIS2_PLACEMENT_3D('',#1409,#1119,#1120);
#954=AXIS2_PLACEMENT_3D('',#1410,#1121,#1122);
#955=AXIS2_PLACEMENT_3D('',#1411,#1123,#1124);
#956=AXIS2_PLACEMENT_3D('',#1416,#1128,#1129);
#957=AXIS2_PLACEMENT_3D('',#1419,#1131,#1132);
#958=AXIS2_PLACEMENT_3D('',#1420,#1133,#1134);
#959=AXIS2_PLACEMENT_3D('',#1423,#1137,#1138);
#960=AXIS2_PLACEMENT_3D('',#1427,#1141,#1142);
#961=AXIS2_PLACEMENT_3D('',#1431,#1144,#1145);
#962=AXIS2_PLACEMENT_3D('',#1434,#1147,#1148);
#963=AXIS2_PLACEMENT_3D('',#1435,#1149,#1150);
#964=AXIS2_PLACEMENT_3D('',#1437,#1151,#1152);
#965=AXIS2_PLACEMENT_3D('',#1447,#1155,#1156);
#966=AXIS2_PLACEMENT_3D('',#1448,#1157,#1158);
#967=AXIS2_PLACEMENT_3D('',#1449,#1159,#1160);
#968=AXIS2_PLACEMENT_3D('',#1451,#1161,#1162);
#969=AXIS2_PLACEMENT_3D('',#1455,#1164,#1165);
#970=AXIS2_PLACEMENT_3D('',#1459,#1167,#1168);
#971=AXIS2_PLACEMENT_3D('',#1462,#1170,#1171);
#972=AXIS2_PLACEMENT_3D('',#1463,#1172,#1173);
#973=AXIS2_PLACEMENT_3D('',#1466,#1174,#1175);
#974=AXIS2_PLACEMENT_3D('',#1469,#1178,#1179);
#975=AXIS2_PLACEMENT_3D('',#1473,#1182,#1183);
#976=AXIS2_PLACEMENT_3D('',#1477,#1185,#1186);
#977=AXIS2_PLACEMENT_3D('',#1481,#1188,#1189);
#978=AXIS2_PLACEMENT_3D('',#1485,#1191,#1192);
#979=AXIS2_PLACEMENT_3D('',#1489,#1194,#1195);
#980=AXIS2_PLACEMENT_3D('',#1492,#1197,#1198);
#981=AXIS2_PLACEMENT_3D('',#1493,#1199,#1200);
#982=AXIS2_PLACEMENT_3D('',#1495,#1202,#1203);
#983=AXIS2_PLACEMENT_3D('',#1497,#1205,#1206);
#984=AXIS2_PLACEMENT_3D('',#1500,#1207,#1208);
#985=AXIS2_PLACEMENT_3D('',#1502,#1209,#1210);
#986=AXIS2_PLACEMENT_3D('',#1504,#1211,#1212);
#987=AXIS2_PLACEMENT_3D('',#1505,#1213,#1214);
#988=AXIS2_PLACEMENT_3D('',#1506,#1215,#1216);
#989=AXIS2_PLACEMENT_3D('',#1509,#1217,#1218);
#990=AXIS2_PLACEMENT_3D('',#1512,#1221,#1222);
#991=AXIS2_PLACEMENT_3D('',#1515,#1223,#1224);
#992=AXIS2_PLACEMENT_3D('',#1516,#1225,#1226);
#993=AXIS2_PLACEMENT_3D('',#1517,#1227,#1228);
#994=AXIS2_PLACEMENT_3D('',#1518,#1229,#1230);
#995=AXIS2_PLACEMENT_3D('',#1524,#1234,#1235);
#996=AXIS2_PLACEMENT_3D('',#1533,#1237,#1238);
#997=AXIS2_PLACEMENT_3D('',#1534,#1239,#1240);
#998=AXIS2_PLACEMENT_3D('',#1535,#1241,#1242);
#999=AXIS2_PLACEMENT_3D('',#1536,#1243,#1244);
#1000=AXIS2_PLACEMENT_3D('',#1537,#1245,#1246);
#1001=AXIS2_PLACEMENT_3D('',#1538,#1247,#1248);
#1002=AXIS2_PLACEMENT_3D('',#1539,#1249,#1250);
#1003=AXIS2_PLACEMENT_3D('',#1541,#1251,#1252);
#1004=AXIS2_PLACEMENT_3D('',#1542,#1253,#1254);
#1005=AXIS2_PLACEMENT_3D('',#1573,#1255,#1256);
#1006=AXIS2_PLACEMENT_3D('',#1574,#1257,#1258);
#1007=AXIS2_PLACEMENT_3D('',#1608,#1261,#1262);
#1008=AXIS2_PLACEMENT_3D('',#1614,#1263,#1264);
#1009=AXIS2_PLACEMENT_3D('',#1616,#1266,#1267);
#1010=AXIS2_PLACEMENT_3D('',#1617,#1268,#1269);
#1011=AXIS2_PLACEMENT_3D('',#1619,#1271,#1272);
#1012=AXIS2_PLACEMENT_3D('',#1621,#1274,#1275);
#1013=AXIS2_PLACEMENT_3D('',#1623,#1277,#1278);
#1014=AXIS2_PLACEMENT_3D('',#1625,#1280,#1281);
#1015=AXIS2_PLACEMENT_3D('',#1627,#1283,#1284);
#1016=AXIS2_PLACEMENT_3D('',#1628,#1285,#1286);
#1017=AXIS2_PLACEMENT_3D('',#1632,#1288,#1289);
#1018=AXIS2_PLACEMENT_3D('',#1635,#1291,#1292);
#1019=AXIS2_PLACEMENT_3D('',#1636,#1293,#1294);
#1020=AXIS2_PLACEMENT_3D('',#1638,#1296,#1297);
#1021=AXIS2_PLACEMENT_3D('',#1640,#1299,#1300);
#1022=AXIS2_PLACEMENT_3D('',#1642,#1302,#1303);
#1023=DIRECTION('axis',(0.,0.,1.));
#1024=DIRECTION('refdir',(1.,0.,0.));
#1025=DIRECTION('center_axis',(1.15447974903218E-16,-0.707106781186542,
0.707106781186553));
#1026=DIRECTION('ref_axis',(-1.,-1.99945746095128E-32,1.63268091856638E-16));
#1027=DIRECTION('center_axis',(1.15447974903218E-16,-0.707106781186542,
0.707106781186553));
#1028=DIRECTION('ref_axis',(-1.47196168001605E-16,0.707106781186553,0.707106781186542));
#1029=DIRECTION('',(-1.,-1.63268091856641E-16,-1.99945746095131E-32));
#1030=DIRECTION('',(-9.23583799225746E-16,-0.707106781186553,-0.707106781186542));
#1031=DIRECTION('',(1.,1.63268091856641E-16,1.99945746095131E-32));
#1032=DIRECTION('center_axis',(0.,-1.22464679914735E-16,1.));
#1033=DIRECTION('ref_axis',(-0.707106781186548,0.707106781186547,8.65956056235493E-17));
#1034=DIRECTION('',(0.707106781186549,-2.36658724105464E-16,-0.707106781186546));
#1035=DIRECTION('center_axis',(0.,1.22464679914735E-16,-1.));
#1036=DIRECTION('ref_axis',(-0.707106781186548,0.707106781186547,8.65956056235493E-17));
#1037=DIRECTION('center_axis',(0.,-1.22464679914735E-16,1.));
#1038=DIRECTION('ref_axis',(-0.707106781186548,0.707106781186547,8.65956056235493E-17));
#1039=DIRECTION('center_axis',(0.707106781186545,-8.65956056235496E-17,
0.70710678118655));
#1040=DIRECTION('ref_axis',(-0.70710678118655,-8.6595605623549E-17,0.707106781186545));
#1041=DIRECTION('',(0.70710678118655,8.6595605623549E-17,-0.707106781186545));
#1042=DIRECTION('',(0.,1.,1.22464679914735E-16));
#1043=DIRECTION('',(0.,-1.,-1.22464679914735E-16));
#1044=DIRECTION('center_axis',(0.,-1.22464679914735E-16,1.));
#1045=DIRECTION('ref_axis',(-0.707106781186547,-0.707106781186548,-8.65956056235494E-17));
#1046=DIRECTION('',(-3.92523114670942E-16,0.707106781186554,-0.707106781186541));
#1047=DIRECTION('center_axis',(0.,1.22464679914735E-16,-1.));
#1048=DIRECTION('ref_axis',(-0.707106781186547,-0.707106781186548,-8.65956056235494E-17));
#1049=DIRECTION('center_axis',(0.,-1.22464679914735E-16,1.));
#1050=DIRECTION('ref_axis',(-0.707106781186547,-0.707106781186548,-8.65956056235494E-17));
#1051=DIRECTION('center_axis',(0.,0.707106781186541,0.707106781186554));
#1052=DIRECTION('ref_axis',(-1.,0.,0.));
#1053=DIRECTION('center_axis',(0.,0.707106781186541,0.707106781186554));
#1054=DIRECTION('ref_axis',(0.,-0.707106781186554,0.707106781186541));
#1055=DIRECTION('',(-1.,0.,0.));
#1056=DIRECTION('',(1.,0.,0.));
#1057=DIRECTION('center_axis',(1.63268091856641E-16,-1.,-1.22464679914735E-16));
#1058=DIRECTION('ref_axis',(-1.,-1.63268091856641E-16,-1.99945746095131E-32));
#1059=DIRECTION('',(0.,-1.22464679914735E-16,1.));
#1060=DIRECTION('',(1.,1.63268091856641E-16,1.99945746095131E-32));
#1061=DIRECTION('',(0.,1.22464679914735E-16,-1.));
#1062=DIRECTION('center_axis',(0.,1.22464679914735E-16,-1.));
#1063=DIRECTION('ref_axis',(-0.707106781186548,0.707106781186547,8.65956056235493E-17));
#1064=DIRECTION('',(0.,1.22464679914735E-16,-1.));
#1065=DIRECTION('center_axis',(0.,-1.22464679914735E-16,1.));
#1066=DIRECTION('ref_axis',(-0.707106781186548,0.707106781186547,8.65956056235493E-17));
#1067=DIRECTION('center_axis',(1.,0.,0.));
#1068=DIRECTION('ref_axis',(0.,-1.,-1.22464679914735E-16));
#1069=DIRECTION('',(0.,-1.22464679914735E-16,1.));
#1070=DIRECTION('',(0.,1.,1.22464679914735E-16));
#1071=DIRECTION('center_axis',(0.,1.22464679914735E-16,-1.));
#1072=DIRECTION('ref_axis',(-0.707106781186547,-0.707106781186548,-8.65956056235494E-17));
#1073=DIRECTION('',(0.,1.22464679914735E-16,-1.));
#1074=DIRECTION('center_axis',(0.,-1.22464679914735E-16,1.));
#1075=DIRECTION('ref_axis',(-0.707106781186547,-0.707106781186548,-8.65956056235494E-17));
#1076=DIRECTION('center_axis',(0.,1.,1.22464679914735E-16));
#1077=DIRECTION('ref_axis',(1.,0.,0.));
#1078=DIRECTION('',(0.,-1.22464679914735E-16,1.));
#1079=DIRECTION('',(-1.,0.,0.));
#1080=DIRECTION('center_axis',(0.,1.22464679914735E-16,-1.));
#1081=DIRECTION('ref_axis',(0.707106781186546,-0.707106781186549,-8.65956056235495E-17));
#1082=DIRECTION('center_axis',(0.,1.22464679914735E-16,-1.));
#1083=DIRECTION('ref_axis',(0.707106781186546,-0.707106781186549,-8.65956056235495E-17));
#1084=DIRECTION('',(0.,1.22464679914735E-16,-1.));
#1085=DIRECTION('center_axis',(0.,1.22464679914735E-16,-1.));
#1086=DIRECTION('ref_axis',(0.707106781186546,-0.707106781186549,-8.65956056235495E-17));
#1087=DIRECTION('',(0.,-1.22464679914735E-16,1.));
#1088=DIRECTION('',(0.,1.22464679914735E-16,-1.));
#1089=DIRECTION('center_axis',(0.,1.22464679914735E-16,-1.));
#1090=DIRECTION('ref_axis',(0.707106781186546,-0.707106781186549,-8.65956056235495E-17));
#1091=DIRECTION('center_axis',(0.,-1.22464679914735E-16,1.));
#1092=DIRECTION('ref_axis',(0.707106781186546,0.707106781186549,8.65956056235495E-17));
#1093=DIRECTION('',(0.,0.707106781186547,0.707106781186548));
#1094=DIRECTION('center_axis',(0.,1.22464679914735E-16,-1.));
#1095=DIRECTION('ref_axis',(0.707106781186547,0.707106781186549,8.65956056235495E-17));
#1096=DIRECTION('',(-0.707106781186554,-3.05927509047393E-16,-0.707106781186541));
#1097=DIRECTION('center_axis',(0.,-1.22464679914735E-16,1.));
#1098=DIRECTION('ref_axis',(0.707106781186547,0.707106781186549,8.65956056235495E-17));
#1099=DIRECTION('center_axis',(-1.10764900083511E-16,0.707106781186546,
-0.707106781186549));
#1100=DIRECTION('ref_axis',(1.,1.91835072091271E-32,-1.56645223933002E-16));
#1101=DIRECTION('',(-1.,-1.56645223933003E-16,-1.91835072091272E-32));
#1102=DIRECTION('',(-7.85046229341889E-16,0.707106781186548,0.707106781186547));
#1103=DIRECTION('',(1.,1.56645223933003E-16,1.91835072091272E-32));
#1104=DIRECTION('center_axis',(0.,-1.22464679914735E-16,1.));
#1105=DIRECTION('ref_axis',(-0.707106781186547,0.707106781186547,8.65956056235493E-17));
#1106=DIRECTION('',(-0.707106781186549,-8.65956056235491E-17,0.707106781186546));
#1107=DIRECTION('center_axis',(0.,1.22464679914735E-16,-1.));
#1108=DIRECTION('ref_axis',(-0.707106781186548,0.707106781186548,8.65956056235493E-17));
#1109=DIRECTION('center_axis',(0.,-1.22464679914735E-16,1.));
#1110=DIRECTION('ref_axis',(-0.707106781186547,0.707106781186547,8.65956056235493E-17));
#1111=DIRECTION('center_axis',(-0.707106781186546,9.55165855024346E-17,
-0.707106781186549));
#1112=DIRECTION('ref_axis',(0.707106781186549,8.65956056235491E-17,-0.707106781186546));
#1113=DIRECTION('',(-1.26161707343768E-17,-1.,-1.22464679914735E-16));
#1114=DIRECTION('',(-0.707106781186549,-8.65956056235491E-17,0.707106781186546));
#1115=DIRECTION('',(1.26161707343768E-17,1.,1.22464679914735E-16));
#1116=DIRECTION('center_axis',(0.,-1.22464679914735E-16,1.));
#1117=DIRECTION('ref_axis',(-0.707106781186547,-0.707106781186548,-8.65956056235494E-17));
#1118=DIRECTION('',(-7.85046229341883E-16,-0.707106781186554,0.707106781186541));
#1119=DIRECTION('center_axis',(0.,1.22464679914735E-16,-1.));
#1120=DIRECTION('ref_axis',(-0.707106781186547,-0.707106781186548,-8.65956056235494E-17));
#1121=DIRECTION('center_axis',(0.,-1.22464679914735E-16,1.));
#1122=DIRECTION('ref_axis',(-0.707106781186547,-0.707106781186548,-8.65956056235494E-17));
#1123=DIRECTION('center_axis',(0.,-0.707106781186541,-0.707106781186554));
#1124=DIRECTION('ref_axis',(1.,0.,0.));
#1125=DIRECTION('',(1.,0.,0.));
#1126=DIRECTION('',(0.,-0.707106781186554,0.707106781186541));
#1127=DIRECTION('',(-1.,0.,0.));
#1128=DIRECTION('center_axis',(0.,-1.22464679914735E-16,1.));
#1129=DIRECTION('ref_axis',(0.707106781186546,-0.707106781186549,-8.65956056235495E-17));
#1130=DIRECTION('',(0.707106781186554,-8.65956056235486E-17,0.707106781186541));
#1131=DIRECTION('center_axis',(0.,-1.22464679914735E-16,1.));
#1132=DIRECTION('ref_axis',(0.707106781186546,-0.707106781186549,-8.65956056235495E-17));
#1133=DIRECTION('center_axis',(0.707106781186541,8.65956056235501E-17,-0.707106781186554));
#1134=DIRECTION('ref_axis',(0.707106781186554,-8.65956056235486E-17,0.707106781186541));
#1135=DIRECTION('',(0.,1.,1.22464679914735E-16));
#1136=DIRECTION('',(0.,-1.,-1.22464679914735E-16));
#1137=DIRECTION('center_axis',(0.,-1.,-1.22464679914735E-16));
#1138=DIRECTION('ref_axis',(-1.,0.,0.));
#1139=DIRECTION('',(1.,0.,0.));
#1140=DIRECTION('',(0.,-1.22464679914735E-16,1.));
#1141=DIRECTION('center_axis',(1.,0.,0.));
#1142=DIRECTION('ref_axis',(0.,-1.,-1.22464679914735E-16));
#1143=DIRECTION('',(0.,1.22464679914735E-16,-1.));
#1144=DIRECTION('center_axis',(1.,0.,0.));
#1145=DIRECTION('ref_axis',(0.,0.707106781186548,-0.707106781186547));
#1146=DIRECTION('',(0.,1.,1.22464679914735E-16));
#1147=DIRECTION('center_axis',(1.,0.,0.));
#1148=DIRECTION('ref_axis',(0.,-0.707106781186547,-0.707106781186548));
#1149=DIRECTION('center_axis',(0.,1.22464679914735E-16,-1.));
#1150=DIRECTION('ref_axis',(0.707106781186547,0.707106781186548,8.65956056235495E-17));
#1151=DIRECTION('center_axis',(0.,1.22464679914735E-16,-1.));
#1152=DIRECTION('ref_axis',(0.707106781186547,0.707106781186548,8.65956056235495E-17));
#1153=DIRECTION('',(0.,-1.22464679914735E-16,1.));
#1154=DIRECTION('',(0.,-1.22464679914735E-16,1.));
#1155=DIRECTION('center_axis',(0.,1.22464679914735E-16,-1.));
#1156=DIRECTION('ref_axis',(0.707106781186547,0.707106781186548,8.65956056235495E-17));
#1157=DIRECTION('center_axis',(0.,1.22464679914735E-16,-1.));
#1158=DIRECTION('ref_axis',(1.,0.,0.));
#1159=DIRECTION('center_axis',(0.,-1.22464679914735E-16,1.));
#1160=DIRECTION('ref_axis',(-1.,0.,0.));
#1161=DIRECTION('center_axis',(0.,1.22464679914735E-16,-1.));
#1162=DIRECTION('ref_axis',(0.7905694150421,0.612372435695788,7.49939943260915E-17));
#1163=DIRECTION('',(1.,0.,0.));
#1164=DIRECTION('center_axis',(0.,1.22464679914735E-16,-1.));
#1165=DIRECTION('ref_axis',(-0.707106781186547,-0.707106781186548,-8.65956056235494E-17));
#1166=DIRECTION('',(0.,-1.,-1.22464679914735E-16));
#1167=DIRECTION('center_axis',(0.,1.22464679914735E-16,-1.));
#1168=DIRECTION('ref_axis',(-0.707106781186548,0.707106781186548,8.65956056235493E-17));
#1169=DIRECTION('',(-1.,-1.58001379216104E-16,-1.93495883317869E-32));
#1170=DIRECTION('center_axis',(0.,1.22464679914735E-16,-1.));
#1171=DIRECTION('ref_axis',(0.790569415042094,-0.612372435695795,-7.49939943260924E-17));
#1172=DIRECTION('center_axis',(0.,1.22464679914735E-16,-1.));
#1173=DIRECTION('ref_axis',(-0.707106781186547,-0.707106781186548,-8.65956056235494E-17));
#1174=DIRECTION('center_axis',(0.,1.22464679914735E-16,-1.));
#1175=DIRECTION('ref_axis',(-0.707106781186547,-0.707106781186548,-8.65956056235494E-17));
#1176=DIRECTION('',(0.,1.22464679914735E-16,-1.));
#1177=DIRECTION('',(0.,-1.22464679914735E-16,1.));
#1178=DIRECTION('center_axis',(-1.,0.,0.));
#1179=DIRECTION('ref_axis',(0.,1.,1.22464679914735E-16));
#1180=DIRECTION('',(0.,1.,1.22464679914735E-16));
#1181=DIRECTION('',(0.,-1.22464679914735E-16,1.));
#1182=DIRECTION('center_axis',(0.,1.22464679914735E-16,-1.));
#1183=DIRECTION('ref_axis',(1.,0.,0.));
#1184=DIRECTION('',(1.,0.,0.));
#1185=DIRECTION('center_axis',(0.,1.22464679914735E-16,-1.));
#1186=DIRECTION('ref_axis',(0.7905694150421,0.612372435695788,7.49939943260915E-17));
#1187=DIRECTION('',(-1.,0.,0.));
#1188=DIRECTION('center_axis',(0.,-1.22464679914735E-16,1.));
#1189=DIRECTION('ref_axis',(-0.707106781186547,-0.707106781186548,-8.65956056235494E-17));
#1190=DIRECTION('',(0.,1.,1.22464679914735E-16));
#1191=DIRECTION('center_axis',(0.,-1.22464679914735E-16,1.));
#1192=DIRECTION('ref_axis',(-0.707106781186547,0.707106781186548,8.65956056235494E-17));
#1193=DIRECTION('',(1.,0.,0.));
#1194=DIRECTION('center_axis',(0.,1.22464679914735E-16,-1.));
#1195=DIRECTION('ref_axis',(0.790569415042094,-0.612372435695795,-7.49939943260924E-17));
#1196=DIRECTION('',(1.,1.58001379216104E-16,1.93495883317869E-32));
#1197=DIRECTION('center_axis',(0.,1.22464679914735E-16,-1.));
#1198=DIRECTION('ref_axis',(-0.707106781186548,0.707106781186548,8.65956056235493E-17));
#1199=DIRECTION('center_axis',(0.,1.22464679914735E-16,-1.));
#1200=DIRECTION('ref_axis',(-0.707106781186548,0.707106781186548,8.65956056235493E-17));
#1201=DIRECTION('',(0.,1.22464679914735E-16,-1.));
#1202=DIRECTION('center_axis',(-1.58001379216104E-16,1.,1.22464679914735E-16));
#1203=DIRECTION('ref_axis',(1.,1.58001379216104E-16,1.93495883317869E-32));
#1204=DIRECTION('',(0.,-1.22464679914735E-16,1.));
#1205=DIRECTION('center_axis',(0.,-1.22464679914735E-16,1.));
#1206=DIRECTION('ref_axis',(-1.,0.,0.));
#1207=DIRECTION('center_axis',(1.,0.,0.));
#1208=DIRECTION('ref_axis',(0.,2.89802224147762E-15,-1.));
#1209=DIRECTION('center_axis',(0.,-1.22464679914735E-16,1.));
#1210=DIRECTION('ref_axis',(-0.911437827766148,0.411437827766148,5.03866018821953E-17));
#1211=DIRECTION('center_axis',(0.,-1.,-1.22464679914735E-16));
#1212=DIRECTION('ref_axis',(-1.,0.,0.));
#1213=DIRECTION('center_axis',(0.,1.22464679914735E-16,-1.));
#1214=DIRECTION('ref_axis',(-0.911437827766148,0.411437827766148,5.03866018821953E-17));
#1215=DIRECTION('center_axis',(0.,-1.,-1.22464679914735E-16));
#1216=DIRECTION('ref_axis',(-0.707106781186548,8.65956056235493E-17,-0.707106781186547));
#1217=DIRECTION('center_axis',(0.,-1.,-1.22464679914735E-16));
#1218=DIRECTION('ref_axis',(-1.,0.,0.));
#1219=DIRECTION('',(0.,1.,1.22464679914735E-16));
#1220=DIRECTION('',(0.,-1.,-1.22464679914735E-16));
#1221=DIRECTION('center_axis',(0.,-1.22464679914735E-16,1.));
#1222=DIRECTION('ref_axis',(-1.,0.,0.));
#1223=DIRECTION('center_axis',(1.,0.,0.));
#1224=DIRECTION('ref_axis',(0.,-1.,-4.56335677841534E-15));
#1225=DIRECTION('center_axis',(0.,1.22464679914735E-16,-1.));
#1226=DIRECTION('ref_axis',(-0.911437827766147,-0.41143782776615,-5.03866018821956E-17));
#1227=DIRECTION('center_axis',(0.,-1.22464679914735E-16,1.));
#1228=DIRECTION('ref_axis',(-0.911437827766147,-0.41143782776615,-5.03866018821956E-17));
#1229=DIRECTION('center_axis',(0.,1.22464679914735E-16,-1.));
#1230=DIRECTION('ref_axis',(1.,0.,0.));
#1231=DIRECTION('',(-1.,0.,0.));
#1232=DIRECTION('',(0.,-1.,-1.22464679914735E-16));
#1233=DIRECTION('',(1.,0.,0.));
#1234=DIRECTION('center_axis',(1.,0.,0.));
#1235=DIRECTION('ref_axis',(0.,-0.707106781186547,-0.707106781186548));
#1236=DIRECTION('',(1.,0.,0.));
#1237=DIRECTION('center_axis',(-1.,0.,0.));
#1238=DIRECTION('ref_axis',(0.,-0.707106781186547,-0.707106781186548));
#1239=DIRECTION('center_axis',(1.,0.,0.));
#1240=DIRECTION('ref_axis',(0.,-1.22124532708767E-16,1.));
#1241=DIRECTION('center_axis',(-1.85037170770859E-15,0.552770798392576,
-0.833333333333327));
#1242=DIRECTION('ref_axis',(0.,0.833333333333327,0.552770798392576));
#1243=DIRECTION('center_axis',(0.,-1.,-1.22464679914735E-16));
#1244=DIRECTION('ref_axis',(1.,0.,0.));
#1245=DIRECTION('center_axis',(0.,-1.,-1.22464679914735E-16));
#1246=DIRECTION('ref_axis',(0.707106781186546,-8.65956056235495E-17,0.707106781186549));
#1247=DIRECTION('center_axis',(0.,-1.,-1.22464679914735E-16));
#1248=DIRECTION('ref_axis',(1.,0.,0.));
#1249=DIRECTION('center_axis',(1.,0.,0.));
#1250=DIRECTION('ref_axis',(0.,0.,1.));
#1251=DIRECTION('center_axis',(-7.67123584644814E-17,-0.552770798392558,
-0.833333333333339));
#1252=DIRECTION('ref_axis',(1.,-1.38777878078145E-16,-1.69953884180862E-32));
#1253=DIRECTION('center_axis',(-1.,0.,0.));
#1254=DIRECTION('ref_axis',(0.,0.707106781186548,-0.707106781186547));
#1255=DIRECTION('center_axis',(-5.73316704659924E-16,-2.09798136933558E-15,
-1.));
#1256=DIRECTION('ref_axis',(0.,1.,-2.09798136933558E-15));
#1257=DIRECTION('center_axis',(0.,1.22464679914735E-16,-1.));
#1258=DIRECTION('ref_axis',(0.7905694150421,0.612372435695788,7.49939943260915E-17));
#1259=DIRECTION('',(0.,-1.22464679914735E-16,1.));
#1260=DIRECTION('',(0.,1.22464679914735E-16,-1.));
#1261=DIRECTION('center_axis',(5.73316704659874E-16,-2.09798136933558E-15,
-1.));
#1262=DIRECTION('ref_axis',(0.968245836551857,0.249999999999989,3.06161699786825E-17));
#1263=DIRECTION('center_axis',(0.,1.22464679914735E-16,-1.));
#1264=DIRECTION('ref_axis',(0.790569415042094,-0.612372435695795,-7.49939943260924E-17));
#1265=DIRECTION('',(0.,1.22464679914735E-16,-1.));
#1266=DIRECTION('center_axis',(0.,-1.,-1.22464679914735E-16));
#1267=DIRECTION('ref_axis',(-1.,0.,0.));
#1268=DIRECTION('center_axis',(0.,1.,1.22464679914735E-16));
#1269=DIRECTION('ref_axis',(1.,0.,0.));
#1270=DIRECTION('',(0.,1.22464679914735E-16,-1.));
#1271=DIRECTION('center_axis',(1.,0.,0.));
#1272=DIRECTION('ref_axis',(0.,0.707106781186545,-0.70710678118655));
#1273=DIRECTION('',(-1.,0.,0.));
#1274=DIRECTION('center_axis',(0.,-1.,-1.22464679914735E-16));
#1275=DIRECTION('ref_axis',(-1.,0.,0.));
#1276=DIRECTION('',(0.,-1.22464679914735E-16,1.));
#1277=DIRECTION('center_axis',(0.,1.22464679914735E-16,-1.));
#1278=DIRECTION('ref_axis',(-0.707106781186547,-0.707106781186548,-8.65956056235494E-17));
#1279=DIRECTION('',(0.,-1.22464679914735E-16,1.));
#1280=DIRECTION('center_axis',(1.,0.,0.));
#1281=DIRECTION('ref_axis',(0.,-1.,-1.22464679914735E-16));
#1282=DIRECTION('',(0.,1.22464679914735E-16,-1.));
#1283=DIRECTION('center_axis',(0.,1.22464679914735E-16,-1.));
#1284=DIRECTION('ref_axis',(-0.707106781186547,0.707106781186548,8.65956056235494E-17));
#1285=DIRECTION('center_axis',(0.,1.22464679914735E-16,-1.));
#1286=DIRECTION('ref_axis',(1.,0.,0.));
#1287=DIRECTION('',(-1.,-1.56645223933003E-16,-1.91835072091272E-32));
#1288=DIRECTION('center_axis',(0.,1.22464679914735E-16,-1.));
#1289=DIRECTION('ref_axis',(-0.707106781186548,0.707106781186548,8.65956056235493E-17));
#1290=DIRECTION('',(-1.26161707343768E-17,-1.,-1.22464679914735E-16));
#1291=DIRECTION('center_axis',(0.,1.22464679914735E-16,-1.));
#1292=DIRECTION('ref_axis',(-0.707106781186547,-0.707106781186548,-8.65956056235494E-17));
#1293=DIRECTION('center_axis',(0.,1.22464679914735E-16,-1.));
#1294=DIRECTION('ref_axis',(-0.707106781186547,-0.707106781186548,-8.65956056235494E-17));
#1295=DIRECTION('',(0.,1.22464679914735E-16,-1.));
#1296=DIRECTION('center_axis',(-1.,1.26161707343768E-17,1.5450353107351E-33));
#1297=DIRECTION('ref_axis',(1.26161707343768E-17,1.,1.22464679914735E-16));
#1298=DIRECTION('',(0.,-1.22464679914735E-16,1.));
#1299=DIRECTION('center_axis',(0.,1.22464679914735E-16,-1.));
#1300=DIRECTION('ref_axis',(-0.707106781186548,0.707106781186548,8.65956056235493E-17));
#1301=DIRECTION('',(0.,1.22464679914735E-16,-1.));
#1302=DIRECTION('center_axis',(-1.56645223933003E-16,1.,1.22464679914735E-16));
#1303=DIRECTION('ref_axis',(1.,1.56645223933003E-16,1.91835072091272E-32));
#1304=CARTESIAN_POINT('',(0.,0.,0.));
#1305=CARTESIAN_POINT('Origin',(38.025,40.125,27.375));
#1306=CARTESIAN_POINT('',(53.4320508075689,40.,27.25));
#1307=CARTESIAN_POINT('',(53.2612494995996,40.25,27.5));
#1308=CARTESIAN_POINT('Origin',(51.7,39.,26.25));
#1309=CARTESIAN_POINT('',(0.,40.25,27.5));
#1310=CARTESIAN_POINT('',(38.025,40.25,27.5));
#1311=CARTESIAN_POINT('',(-3.26536183713281E-16,40.,27.25));
#1312=CARTESIAN_POINT('',(0.,40.25,27.5));
#1313=CARTESIAN_POINT('',(38.025,40.,27.25));
#1314=CARTESIAN_POINT('Origin',(0.,38.,27.375));
#1315=CARTESIAN_POINT('',(-2.25,38.,27.5));
#1316=CARTESIAN_POINT('',(-2.,38.,27.25));
#1317=CARTESIAN_POINT('',(-2.25,38.,27.5));
#1318=CARTESIAN_POINT('Origin',(0.,38.,27.25));
#1319=CARTESIAN_POINT('Origin',(0.,38.,27.5));
#1320=CARTESIAN_POINT('Origin',(-2.125,29.5,27.375));
#1321=CARTESIAN_POINT('',(-2.25,-1.77635683940025E-14,27.5));
#1322=CARTESIAN_POINT('',(-2.,-1.77635683940025E-14,27.25));
#1323=CARTESIAN_POINT('',(-2.25,-1.77635683940025E-14,27.5));
#1324=CARTESIAN_POINT('',(-2.,29.5,27.25));
#1325=CARTESIAN_POINT('',(-2.25,29.5,27.5));
#1326=CARTESIAN_POINT('Origin',(0.,-1.77635683940025E-14,27.375));
#1327=CARTESIAN_POINT('',(1.38777878078145E-16,-2.25000000000002,27.5));
#1328=CARTESIAN_POINT('',(0.,-2.00000000000002,27.25));
#1329=CARTESIAN_POINT('',(1.38777878078145E-16,-2.25000000000002,27.5));
#1330=CARTESIAN_POINT('Origin',(0.,-1.77635683940025E-14,27.25));
#1331=CARTESIAN_POINT('Origin',(0.,-1.77635683940025E-14,27.5));
#1332=CARTESIAN_POINT('Origin',(11.675,-2.12500000000002,27.375));
#1333=CARTESIAN_POINT('',(53.2612494995996,-2.25000000000002,27.5));
#1334=CARTESIAN_POINT('',(53.4320508075689,-2.00000000000002,27.25));
#1335=CARTESIAN_POINT('Origin',(51.7,-1.00000000000001,26.25));
#1336=CARTESIAN_POINT('',(11.675,-2.00000000000002,27.25));
#1337=CARTESIAN_POINT('',(11.675,-2.25000000000002,27.5));
#1338=CARTESIAN_POINT('Origin',(50.7,40.,27.5));
#1339=CARTESIAN_POINT('',(0.,40.,25.5));
#1340=CARTESIAN_POINT('',(-3.26536183713281E-16,40.,27.5));
#1341=CARTESIAN_POINT('',(53.4320508075689,40.,25.5));
#1342=CARTESIAN_POINT('',(38.025,40.,25.5));
#1343=CARTESIAN_POINT('',(53.4320508075689,40.,22.5));
#1344=CARTESIAN_POINT('Origin',(0.,38.,27.5));
#1345=CARTESIAN_POINT('',(-2.,38.,25.5));
#1346=CARTESIAN_POINT('',(-2.,38.,27.5));
#1347=CARTESIAN_POINT('Origin',(0.,38.,25.5));
#1348=CARTESIAN_POINT('Origin',(-2.,40.,27.5));
#1349=CARTESIAN_POINT('',(-2.,-1.77635683940025E-14,25.5));
#1350=CARTESIAN_POINT('',(-2.,-1.77635683940025E-14,27.5));
#1351=CARTESIAN_POINT('',(-2.,29.5,25.5));
#1352=CARTESIAN_POINT('Origin',(0.,-1.77635683940025E-14,27.5));
#1353=CARTESIAN_POINT('',(0.,-2.00000000000002,25.5));
#1354=CARTESIAN_POINT('',(0.,-2.00000000000002,27.5));
#1355=CARTESIAN_POINT('Origin',(0.,-1.77635683940025E-14,25.5));
#1356=CARTESIAN_POINT('Origin',(-2.,-2.00000000000002,27.5));
#1357=CARTESIAN_POINT('',(53.4320508075689,-2.00000000000002,25.5));
#1358=CARTESIAN_POINT('',(53.4320508075689,-2.00000000000002,22.5));
#1359=CARTESIAN_POINT('',(11.675,-2.00000000000002,25.5));
#1360=CARTESIAN_POINT('Origin',(51.7,-1.00000000000001,22.5));
#1361=CARTESIAN_POINT('',(51.7,-3.00000000000002,27.5));
#1362=CARTESIAN_POINT('Origin',(51.7,-1.00000000000001,27.5));
#1363=CARTESIAN_POINT('',(51.7,-3.00000000000002,20.75));
#1364=CARTESIAN_POINT('',(51.7,-3.00000000000002,22.5));
#1365=CARTESIAN_POINT('',(53.7,-1.00000000000001,20.75));
#1366=CARTESIAN_POINT('Origin',(51.7,-1.00000000000001,20.75));
#1367=CARTESIAN_POINT('',(53.7,-1.00000000000001,22.1708438024111));
#1368=CARTESIAN_POINT('',(53.7,-1.00000000000001,22.5));
#1369=CARTESIAN_POINT('',(53.6364916731037,-1.50000000000003,23.));
#1370=CARTESIAN_POINT('Ctrl Pts',(53.6364916731037,-1.50000000000004,23.));
#1371=CARTESIAN_POINT('Ctrl Pts',(53.6364916731037,-1.50000000000004,22.8534473838334));
#1372=CARTESIAN_POINT('Ctrl Pts',(53.6621728666367,-1.4133752664671,22.5606294995927));
#1373=CARTESIAN_POINT('Ctrl Pts',(53.7,-1.16199900576852,22.2929551475349));
#1374=CARTESIAN_POINT('Ctrl Pts',(53.7,-1.,22.1708438024111));
#1375=CARTESIAN_POINT('',(53.6364916731037,-1.50000000000003,25.5));
#1376=CARTESIAN_POINT('',(53.6364916731037,-1.50000000000003,22.5));
#1377=CARTESIAN_POINT('Origin',(51.7,-1.00000000000001,25.5));
#1378=CARTESIAN_POINT('Origin',(51.7,39.,20.625));
#1379=CARTESIAN_POINT('',(51.7,40.75,20.5));
#1380=CARTESIAN_POINT('',(51.7,41.,20.75));
#1381=CARTESIAN_POINT('',(51.7,40.75,20.5));
#1382=CARTESIAN_POINT('',(53.7,39.,20.75));
#1383=CARTESIAN_POINT('Origin',(51.7,39.,20.75));
#1384=CARTESIAN_POINT('',(53.45,39.,20.5));
#1385=CARTESIAN_POINT('',(53.7,39.,20.75));
#1386=CARTESIAN_POINT('Origin',(51.7,39.,20.5));
#1387=CARTESIAN_POINT('Origin',(11.175,40.875,20.625));
#1388=CARTESIAN_POINT('',(-0.999999999999999,40.75,20.5));
#1389=CARTESIAN_POINT('',(11.175,40.75,20.5));
#1390=CARTESIAN_POINT('',(-0.999999999999999,41.,20.75));
#1391=CARTESIAN_POINT('',(-0.999999999999999,40.75,20.5));
#1392=CARTESIAN_POINT('',(11.175,41.,20.75));
#1393=CARTESIAN_POINT('Origin',(-0.999999999999999,39.,20.625));
#1394=CARTESIAN_POINT('',(-2.75,39.,20.5));
#1395=CARTESIAN_POINT('',(-3.,39.,20.75));
#1396=CARTESIAN_POINT('',(-2.75,39.,20.5));
#1397=CARTESIAN_POINT('Origin',(-0.999999999999999,39.,20.75));
#1398=CARTESIAN_POINT('Origin',(-0.999999999999999,39.,20.5));
#1399=CARTESIAN_POINT('Origin',(-2.875,7.99999999999999,20.625));
#1400=CARTESIAN_POINT('',(-2.75,-1.00000000000001,20.5));
#1401=CARTESIAN_POINT('',(-2.75,7.99999999999999,20.5));
#1402=CARTESIAN_POINT('',(-3.,-1.00000000000001,20.75));
#1403=CARTESIAN_POINT('',(-2.75,-1.00000000000001,20.5));
#1404=CARTESIAN_POINT('',(-3.,7.99999999999999,20.75));
#1405=CARTESIAN_POINT('Origin',(-1.,-1.00000000000001,20.625));
#1406=CARTESIAN_POINT('',(-1.,-2.75000000000001,20.5));
#1407=CARTESIAN_POINT('',(-1.,-3.00000000000002,20.75));
#1408=CARTESIAN_POINT('',(-1.,-2.75000000000001,20.5));
#1409=CARTESIAN_POINT('Origin',(-1.,-1.00000000000001,20.75));
#1410=CARTESIAN_POINT('Origin',(-1.,-1.00000000000001,20.5));
#1411=CARTESIAN_POINT('Origin',(39.525,-2.87500000000001,20.625));
#1412=CARTESIAN_POINT('',(51.7,-2.75000000000001,20.5));
#1413=CARTESIAN_POINT('',(39.525,-2.75000000000001,20.5));
#1414=CARTESIAN_POINT('',(51.7,-2.75000000000001,20.5));
#1415=CARTESIAN_POINT('',(39.525,-3.00000000000002,20.75));
#1416=CARTESIAN_POINT('Origin',(51.7,-1.00000000000001,20.625));
#1417=CARTESIAN_POINT('',(53.45,-1.00000000000001,20.5));
#1418=CARTESIAN_POINT('',(53.45,-1.00000000000001,20.5));
#1419=CARTESIAN_POINT('Origin',(51.7,-1.00000000000001,20.5));
#1420=CARTESIAN_POINT('Origin',(53.575,9.49999999999999,20.625));
#1421=CARTESIAN_POINT('',(53.45,9.49999999999999,20.5));
#1422=CARTESIAN_POINT('',(53.7,9.49999999999999,20.75));
#1423=CARTESIAN_POINT('Origin',(53.7,-3.00000000000002,22.5));
#1424=CARTESIAN_POINT('',(-1.,-3.00000000000002,27.5));
#1425=CARTESIAN_POINT('',(-3.,-3.00000000000002,27.5));
#1426=CARTESIAN_POINT('',(-1.,-3.00000000000002,22.5));
#1427=CARTESIAN_POINT('Origin',(53.7,-1.77635683940025E-14,22.5));
#1428=CARTESIAN_POINT('',(53.7,39.,22.1708438024112));
#1429=CARTESIAN_POINT('',(53.7,39.,22.5));
#1430=CARTESIAN_POINT('',(53.7,37.75,21.5));
#1431=CARTESIAN_POINT('Origin',(53.7,37.75,23.));
#1432=CARTESIAN_POINT('',(53.7,0.249999999999981,21.5));
#1433=CARTESIAN_POINT('',(53.7,9.49999999999999,21.5));
#1434=CARTESIAN_POINT('Origin',(53.7,0.249999999999977,23.));
#1435=CARTESIAN_POINT('Origin',(51.7,39.,22.5));
#1436=CARTESIAN_POINT('',(53.6364916731037,39.5,25.5));
#1437=CARTESIAN_POINT('Origin',(51.7,39.,25.5));
#1438=CARTESIAN_POINT('',(53.6364916731037,39.5,23.));
#1439=CARTESIAN_POINT('',(53.6364916731037,39.5,22.5));
#1440=CARTESIAN_POINT('Ctrl Pts',(53.7,39.,22.1708438024112));
#1441=CARTESIAN_POINT('Ctrl Pts',(53.7,39.1619990057685,22.292955147535));
#1442=CARTESIAN_POINT('Ctrl Pts',(53.6621734520546,39.413375088503,22.5606295156993));
#1443=CARTESIAN_POINT('Ctrl Pts',(53.6364916731037,39.5,22.8534473838334));
#1444=CARTESIAN_POINT('Ctrl Pts',(53.6364916731037,39.5,23.));
#1445=CARTESIAN_POINT('',(51.7,41.,27.5));
#1446=CARTESIAN_POINT('',(51.7,41.,22.5));
#1447=CARTESIAN_POINT('Origin',(51.7,39.,27.5));
#1448=CARTESIAN_POINT('Origin',(25.35,19.,20.5));
#1449=CARTESIAN_POINT('Origin',(25.35,19.,25.5));
#1450=CARTESIAN_POINT('',(53.6364916731037,-1.00000000000002,25.5));
#1451=CARTESIAN_POINT('Origin',(52.6682458365519,-1.25000000000002,25.5));
#1452=CARTESIAN_POINT('',(1.,-1.00000000000002,25.5));
#1453=CARTESIAN_POINT('',(38.025,-1.00000000000002,25.5));
#1454=CARTESIAN_POINT('',(-1.,0.999999999999979,25.5));
#1455=CARTESIAN_POINT('Origin',(1.,0.999999999999979,25.5));
#1456=CARTESIAN_POINT('',(-1.,37.,25.5));
#1457=CARTESIAN_POINT('',(-1.,8.99999999999998,25.5));
#1458=CARTESIAN_POINT('',(0.999999999999999,39.,25.5));
#1459=CARTESIAN_POINT('Origin',(1.,37.,25.5));
#1460=CARTESIAN_POINT('',(53.6364916731037,39.,25.5));
#1461=CARTESIAN_POINT('',(12.175,39.,25.5));
#1462=CARTESIAN_POINT('Origin',(52.6682458365519,39.25,25.5));
#1463=CARTESIAN_POINT('Origin',(1.,0.999999999999979,27.5));
#1464=CARTESIAN_POINT('',(1.,-1.00000000000002,27.5));
#1465=CARTESIAN_POINT('',(-1.,0.999999999999979,27.5));
#1466=CARTESIAN_POINT('Origin',(1.,0.999999999999979,27.5));
#1467=CARTESIAN_POINT('',(-1.,0.999999999999979,27.5));
#1468=CARTESIAN_POINT('',(1.,-1.00000000000002,27.5));
#1469=CARTESIAN_POINT('Origin',(-1.,-1.00000000000003,27.5));
#1470=CARTESIAN_POINT('',(-1.,37.,27.5));
#1471=CARTESIAN_POINT('',(-1.,40.,27.5));
#1472=CARTESIAN_POINT('',(-1.,37.,27.5));
#1473=CARTESIAN_POINT('Origin',(25.35,19.,27.5));
#1474=CARTESIAN_POINT('',(53.6364916731037,-1.00000000000002,27.5));
#1475=CARTESIAN_POINT('',(38.025,-1.00000000000002,27.5));
#1476=CARTESIAN_POINT('',(52.6682458365519,-0.250000000000021,27.5));
#1477=CARTESIAN_POINT('Origin',(52.6682458365519,-1.25000000000002,27.5));
#1478=CARTESIAN_POINT('',(1.75,-0.250000000000021,27.5));
#1479=CARTESIAN_POINT('',(38.025,-0.250000000000021,27.5));
#1480=CARTESIAN_POINT('',(-0.249999999999999,1.74999999999998,27.5));
#1481=CARTESIAN_POINT('Origin',(1.75,1.74999999999998,27.5));
#1482=CARTESIAN_POINT('',(-0.249999999999999,36.25,27.5));
#1483=CARTESIAN_POINT('',(-0.249999999999999,28.5,27.5));
#1484=CARTESIAN_POINT('',(1.75,38.25,27.5));
#1485=CARTESIAN_POINT('Origin',(1.75,36.25,27.5));
#1486=CARTESIAN_POINT('',(52.6682458365519,38.25,27.5));
#1487=CARTESIAN_POINT('',(39.525,38.25,27.5));
#1488=CARTESIAN_POINT('',(53.6364916731037,39.,27.5));
#1489=CARTESIAN_POINT('Origin',(52.6682458365519,39.25,27.5));
#1490=CARTESIAN_POINT('',(0.999999999999996,39.,27.5));
#1491=CARTESIAN_POINT('',(50.7,39.,27.5));
#1492=CARTESIAN_POINT('Origin',(1.,37.,27.5));
#1493=CARTESIAN_POINT('Origin',(1.,37.,27.5));
#1494=CARTESIAN_POINT('',(1.,39.,27.5));
#1495=CARTESIAN_POINT('Origin',(-0.999999999999996,39.,27.5));
#1496=CARTESIAN_POINT('',(53.6364916731037,39.,22.5));
#1497=CARTESIAN_POINT('Origin',(1.75,36.25,23.));
#1498=CARTESIAN_POINT('',(1.75,37.75,22.5));
#1499=CARTESIAN_POINT('',(1.75,38.25,23.));
#1500=CARTESIAN_POINT('Origin',(1.75,37.75,23.));
#1501=CARTESIAN_POINT('',(-0.25,36.25,23.));
#1502=CARTESIAN_POINT('Origin',(1.75,36.25,23.));
#1503=CARTESIAN_POINT('',(0.249999999999999,36.25,22.5));
#1504=CARTESIAN_POINT('Origin',(0.249999999999999,36.25,23.));
#1505=CARTESIAN_POINT('Origin',(1.75,36.25,22.5));
#1506=CARTESIAN_POINT('Origin',(0.249999999999999,28.5,23.));
#1507=CARTESIAN_POINT('',(-0.25,1.74999999999998,23.));
#1508=CARTESIAN_POINT('',(0.249999999999999,1.74999999999998,22.5));
#1509=CARTESIAN_POINT('Origin',(0.249999999999999,1.74999999999998,23.));
#1510=CARTESIAN_POINT('',(0.249999999999999,28.5,22.5));
#1511=CARTESIAN_POINT('',(-0.25,28.5,23.));
#1512=CARTESIAN_POINT('Origin',(1.75,1.74999999999998,23.));
#1513=CARTESIAN_POINT('',(1.75,-0.250000000000021,23.));
#1514=CARTESIAN_POINT('',(1.75,0.249999999999981,22.5));
#1515=CARTESIAN_POINT('Origin',(1.75,0.249999999999981,23.));
#1516=CARTESIAN_POINT('Origin',(1.75,1.74999999999998,22.5));
#1517=CARTESIAN_POINT('Origin',(1.75,1.74999999999998,23.));
#1518=CARTESIAN_POINT('Origin',(25.35,19.,22.5));
#1519=CARTESIAN_POINT('',(52.7,0.249999999999981,22.5));
#1520=CARTESIAN_POINT('',(38.025,0.249999999999981,22.5));
#1521=CARTESIAN_POINT('',(52.7,37.75,22.5));
#1522=CARTESIAN_POINT('',(52.7,9.49999999999999,22.5));
#1523=CARTESIAN_POINT('',(39.525,37.75,22.5));
#1524=CARTESIAN_POINT('Origin',(38.025,0.249999999999977,23.));
#1525=CARTESIAN_POINT('',(52.6682458365518,-0.250000000000021,23.));
#1526=CARTESIAN_POINT('',(38.025,-0.250000000000021,23.));
#1527=CARTESIAN_POINT('',(52.7,-0.166666666666684,22.7236146008037));
#1528=CARTESIAN_POINT('Ctrl Pts',(52.7,-0.166666666666686,22.7236146008037));
#1529=CARTESIAN_POINT('Ctrl Pts',(52.7,-0.193666500961247,22.7643183825114));
#1530=CARTESIAN_POINT('Ctrl Pts',(52.6810864333183,-0.235562544411218,22.853543166531));
#1531=CARTESIAN_POINT('Ctrl Pts',(52.6682458365518,-0.250000000000021,22.9511491279444));
#1532=CARTESIAN_POINT('Ctrl Pts',(52.6682458365518,-0.250000000000021,23.));
#1533=CARTESIAN_POINT('Origin',(52.7,0.249999999999977,23.));
#1534=CARTESIAN_POINT('Origin',(52.7,0.249999999999977,23.));
#1535=CARTESIAN_POINT('Origin',(52.7,-1.00000000000001,22.1708438024111));
#1536=CARTESIAN_POINT('Origin',(52.7,0.249999999999981,21.5));
#1537=CARTESIAN_POINT('Origin',(52.7,9.49999999999999,21.5));
#1538=CARTESIAN_POINT('Origin',(52.7,37.75,21.5));
#1539=CARTESIAN_POINT('Origin',(52.7,37.75,23.));
#1540=CARTESIAN_POINT('',(52.7,38.1666666666667,22.7236146008037));
#1541=CARTESIAN_POINT('Origin',(52.7,39.,22.1708438024112));
#1542=CARTESIAN_POINT('Origin',(52.7,37.75,23.));
#1543=CARTESIAN_POINT('Ctrl Pts',(53.6364916731037,-1.50000000000004,23.));
#1544=CARTESIAN_POINT('Ctrl Pts',(53.6364916731037,-1.50000000000004,22.8534473838334));
#1545=CARTESIAN_POINT('Ctrl Pts',(53.6621728666367,-1.4133752664671,22.5606294995927));
#1546=CARTESIAN_POINT('Ctrl Pts',(53.7,-1.16199900576852,22.2929551475349));
#1547=CARTESIAN_POINT('Ctrl Pts',(53.7,-1.,22.1708438024111));
#1548=CARTESIAN_POINT('Ctrl Pts',(53.6799077821974,-1.33185013252287,23.));
#1549=CARTESIAN_POINT('Ctrl Pts',(53.6799077821974,-1.33185013252287,22.8709813991222));
#1550=CARTESIAN_POINT('Ctrl Pts',(53.6947089389717,-1.25343328389724,22.6125850392771));
#1551=CARTESIAN_POINT('Ctrl Pts',(53.7101263576059,-1.0238992497264,22.3670251276621));
#1552=CARTESIAN_POINT('Ctrl Pts',(53.7,-0.875333624857553,22.2535381204754));
#1553=CARTESIAN_POINT('Ctrl Pts',(53.6766828196571,-0.973335083903338,23.));
#1554=CARTESIAN_POINT('Ctrl Pts',(53.6766828196571,-0.973335083903337,22.9059758734781));
#1555=CARTESIAN_POINT('Ctrl Pts',(53.6741040714955,-0.916942709012537,22.7162481698271));
#1556=CARTESIAN_POINT('Ctrl Pts',(53.655834448553,-0.742640373787654,22.5148691332824));
#1557=CARTESIAN_POINT('Ctrl Pts',(53.6315229149635,-0.626434810481226,22.4186389160855));
#1558=CARTESIAN_POINT('Ctrl Pts',(53.3600600903866,-0.429053506015436,23.));
#1559=CARTESIAN_POINT('Ctrl Pts',(53.3600600903866,-0.429053506015436,22.9510935617144));
#1560=CARTESIAN_POINT('Ctrl Pts',(53.3506083303392,-0.411110793680303,22.8508862169478));
#1561=CARTESIAN_POINT('Ctrl Pts',(53.3224676607919,-0.334579937954966,22.7183090876023));
#1562=CARTESIAN_POINT('Ctrl Pts',(53.2970347494207,-0.275949186308852,22.6511247780442));
#1563=CARTESIAN_POINT('Ctrl Pts',(52.9287424911143,-0.250000000000021,23.));
#1564=CARTESIAN_POINT('Ctrl Pts',(52.9287424911143,-0.250000000000021,22.957932921445));
#1565=CARTESIAN_POINT('Ctrl Pts',(52.9331072685753,-0.240491429656686,22.8723709315237));
#1566=CARTESIAN_POINT('Ctrl Pts',(52.9341019030267,-0.19900736578178,22.7727160541706));
#1567=CARTESIAN_POINT('Ctrl Pts',(52.9243994752564,-0.166666666666684,22.7236146008037));
#1568=CARTESIAN_POINT('Ctrl Pts',(52.6682458365518,-0.250000000000021,23.));
#1569=CARTESIAN_POINT('Ctrl Pts',(52.6682458365518,-0.250000000000021,22.9511491279444));
#1570=CARTESIAN_POINT('Ctrl Pts',(52.6810864333183,-0.235562544411218,22.853543166531));
#1571=CARTESIAN_POINT('Ctrl Pts',(52.7,-0.193666500961247,22.7643183825114));
#1572=CARTESIAN_POINT('Ctrl Pts',(52.7,-0.166666666666686,22.7236146008037));
#1573=CARTESIAN_POINT('Origin',(52.6682458365518,-1.25000000000002,23.));
#1574=CARTESIAN_POINT('Origin',(52.6682458365519,-1.25000000000002,22.5));
#1575=CARTESIAN_POINT('',(52.6682458365519,-0.250000000000017,22.5));
#1576=CARTESIAN_POINT('',(53.6364916731037,-1.00000000000002,22.5));
#1577=CARTESIAN_POINT('Ctrl Pts',(53.7,39.,22.1708438024112));
#1578=CARTESIAN_POINT('Ctrl Pts',(53.7,39.1619990057685,22.292955147535));
#1579=CARTESIAN_POINT('Ctrl Pts',(53.6621734520546,39.413375088503,22.5606295156993));
#1580=CARTESIAN_POINT('Ctrl Pts',(53.6364916731037,39.5,22.8534473838334));
#1581=CARTESIAN_POINT('Ctrl Pts',(53.6364916731037,39.5,23.));
#1582=CARTESIAN_POINT('Ctrl Pts',(53.7,38.8753336248575,22.2535381204754));
#1583=CARTESIAN_POINT('Ctrl Pts',(53.7101263576059,39.0238992497264,22.3670251276622));
#1584=CARTESIAN_POINT('Ctrl Pts',(53.6947095005035,39.2534331341095,22.6125849513697));
#1585=CARTESIAN_POINT('Ctrl Pts',(53.6799077821975,39.3318501325228,22.8709813991222));
#1586=CARTESIAN_POINT('Ctrl Pts',(53.6799077821975,39.3318501325228,23.));
#1587=CARTESIAN_POINT('Ctrl Pts',(53.6315141901464,38.6264442743706,22.4186326384515));
#1588=CARTESIAN_POINT('Ctrl Pts',(53.6558257237359,38.7426498376772,22.5148628556486));
#1589=CARTESIAN_POINT('Ctrl Pts',(53.6740919095432,38.916956153443,22.7162448018996));
#1590=CARTESIAN_POINT('Ctrl Pts',(53.6766663664835,38.9733528569194,22.9059758734781));
#1591=CARTESIAN_POINT('Ctrl Pts',(53.6766663664835,38.9733528569194,23.));
#1592=CARTESIAN_POINT('Ctrl Pts',(53.2970264308448,38.2759643480401,22.6511147208895));
#1593=CARTESIAN_POINT('Ctrl Pts',(53.322459342216,38.3345950996864,22.718299030448));
#1594=CARTESIAN_POINT('Ctrl Pts',(53.3505963541105,38.41113398011,22.8508805884847));
#1595=CARTESIAN_POINT('Ctrl Pts',(53.3600438921273,38.4290845377333,22.9510935617144));
#1596=CARTESIAN_POINT('Ctrl Pts',(53.3600438921273,38.4290845377333,23.));
#1597=CARTESIAN_POINT('Ctrl Pts',(52.9243994752564,38.1666666666667,22.7236146008037));
#1598=CARTESIAN_POINT('Ctrl Pts',(52.9341019030267,38.199007365782,22.7727160541711));
#1599=CARTESIAN_POINT('Ctrl Pts',(52.9331076669155,38.2404910488993,22.8723711956392));
#1600=CARTESIAN_POINT('Ctrl Pts',(52.9287424911143,38.25,22.957932921445));
#1601=CARTESIAN_POINT('Ctrl Pts',(52.9287424911143,38.25,23.));
#1602=CARTESIAN_POINT('Ctrl Pts',(52.7,38.1666666666667,22.7236146008037));
#1603=CARTESIAN_POINT('Ctrl Pts',(52.7,38.1936665009615,22.7643183825118));
#1604=CARTESIAN_POINT('Ctrl Pts',(52.6810867260273,38.2355625147505,22.8535431718998));
#1605=CARTESIAN_POINT('Ctrl Pts',(52.6682458365519,38.25,22.9511491279445));
#1606=CARTESIAN_POINT('Ctrl Pts',(52.6682458365519,38.25,23.));
#1607=CARTESIAN_POINT('',(52.6682458365519,38.25,23.));
#1608=CARTESIAN_POINT('Origin',(52.6682458365519,39.25,23.));
#1609=CARTESIAN_POINT('Ctrl Pts',(52.6682458365519,38.25,23.));
#1610=CARTESIAN_POINT('Ctrl Pts',(52.6682458365519,38.25,22.9511491279445));
#1611=CARTESIAN_POINT('Ctrl Pts',(52.6810867260273,38.2355625147505,22.8535431718998));
#1612=CARTESIAN_POINT('Ctrl Pts',(52.7,38.1936665009615,22.7643183825118));
#1613=CARTESIAN_POINT('Ctrl Pts',(52.7,38.1666666666667,22.7236146008037));
#1614=CARTESIAN_POINT('Origin',(52.6682458365519,39.25,22.5));
#1615=CARTESIAN_POINT('',(52.6682458365519,38.25,22.5));
#1616=CARTESIAN_POINT('Origin',(50.7,-1.00000000000002,27.5));
#1617=CARTESIAN_POINT('Origin',(50.7,-0.250000000000017,22.5));
#1618=CARTESIAN_POINT('',(1.75,-0.250000000000021,25.));
#1619=CARTESIAN_POINT('Origin',(39.525,37.75,23.));
#1620=CARTESIAN_POINT('',(39.525,38.25,23.));
#1621=CARTESIAN_POINT('Origin',(53.7,38.25,22.5));
#1622=CARTESIAN_POINT('',(1.75,38.25,25.));
#1623=CARTESIAN_POINT('Origin',(1.75,1.74999999999998,25.));
#1624=CARTESIAN_POINT('',(-0.25,1.74999999999998,25.));
#1625=CARTESIAN_POINT('Origin',(-0.25,38.,27.5));
#1626=CARTESIAN_POINT('',(-0.25,36.25,25.));
#1627=CARTESIAN_POINT('Origin',(1.75,36.25,25.));
#1628=CARTESIAN_POINT('Origin',(25.35,19.,27.5));
#1629=CARTESIAN_POINT('',(-0.999999999999996,41.,27.5));
#1630=CARTESIAN_POINT('',(53.7,41.,27.5));
#1631=CARTESIAN_POINT('',(-3.,39.,27.5));
#1632=CARTESIAN_POINT('Origin',(-0.999999999999999,39.,27.5));
#1633=CARTESIAN_POINT('',(-3.,-1.00000000000001,27.5));
#1634=CARTESIAN_POINT('',(-3.,41.,27.5));
#1635=CARTESIAN_POINT('Origin',(-1.,-1.00000000000001,27.5));
#1636=CARTESIAN_POINT('Origin',(-1.,-1.00000000000001,22.5));
#1637=CARTESIAN_POINT('',(-3.,-1.00000000000001,22.5));
#1638=CARTESIAN_POINT('Origin',(-3.,-3.00000000000002,22.5));
#1639=CARTESIAN_POINT('',(-3.,39.,22.5));
#1640=CARTESIAN_POINT('Origin',(-0.999999999999999,39.,22.5));
#1641=CARTESIAN_POINT('',(-0.999999999999999,41.,22.5));
#1642=CARTESIAN_POINT('Origin',(-3.,41.,22.5));
#1643=UNCERTAINTY_MEASURE_WITH_UNIT(LENGTH_MEASURE(0.01),#1647,
'DISTANCE_ACCURACY_VALUE',
'Maximum model space distance between geometric entities at asserted c
onnectivities');
#1644=UNCERTAINTY_MEASURE_WITH_UNIT(LENGTH_MEASURE(0.01),#1647,
'DISTANCE_ACCURACY_VALUE',
'Maximum model space distance between geometric entities at asserted c
onnectivities');
#1645=(
GEOMETRIC_REPRESENTATION_CONTEXT(3)
GLOBAL_UNCERTAINTY_ASSIGNED_CONTEXT((#1643))
GLOBAL_UNIT_ASSIGNED_CONTEXT((#1647,#1649,#1650))
REPRESENTATION_CONTEXT('','3D')
);
#1646=(
GEOMETRIC_REPRESENTATION_CONTEXT(3)
GLOBAL_UNCERTAINTY_ASSIGNED_CONTEXT((#1644))
GLOBAL_UNIT_ASSIGNED_CONTEXT((#1647,#1649,#1650))
REPRESENTATION_CONTEXT('','3D')
);
#1647=(
LENGTH_UNIT()
NAMED_UNIT(*)
SI_UNIT(.MILLI.,.METRE.)
);
#1648=(
LENGTH_UNIT()
NAMED_UNIT(*)
SI_UNIT($,.METRE.)
);
#1649=(
NAMED_UNIT(*)
PLANE_ANGLE_UNIT()
SI_UNIT($,.RADIAN.)
);
#1650=(
NAMED_UNIT(*)
SI_UNIT($,.STERADIAN.)
SOLID_ANGLE_UNIT()
);
#1651=SHAPE_DEFINITION_REPRESENTATION(#1652,#1653);
#1652=PRODUCT_DEFINITION_SHAPE('',$,#1655);
#1653=SHAPE_REPRESENTATION('',(#921),#1645);
#1654=PRODUCT_DEFINITION_CONTEXT('part definition',#1659,'design');
#1655=PRODUCT_DEFINITION('XIAO ESP32 A-01 Case',
'XIAO ESP32 A-01 Case v10',#1656,#1654);
#1656=PRODUCT_DEFINITION_FORMATION('',$,#1661);
#1657=PRODUCT_RELATED_PRODUCT_CATEGORY('XIAO ESP32 A-01 Case v10',
'XIAO ESP32 A-01 Case v10',(#1661));
#1658=APPLICATION_PROTOCOL_DEFINITION('international standard',
'automotive_design',2009,#1659);
#1659=APPLICATION_CONTEXT(
'Core Data for Automotive Mechanical Design Process');
#1660=PRODUCT_CONTEXT('part definition',#1659,'mechanical');
#1661=PRODUCT('XIAO ESP32 A-01 Case','XIAO ESP32 A-01 Case v10',$,(#1660));
#1662=PRESENTATION_STYLE_ASSIGNMENT((#1663));
#1663=SURFACE_STYLE_USAGE(.BOTH.,#1664);
#1664=SURFACE_SIDE_STYLE('',(#1665));
#1665=SURFACE_STYLE_FILL_AREA(#1666);
#1666=FILL_AREA_STYLE('Plastic - Glossy (Grey)',(#1667));
#1667=FILL_AREA_STYLE_COLOUR('Plastic - Glossy (Grey)',#1668);
#1668=COLOUR_RGB('Plastic - Glossy (Grey)',0.701960784313725,0.701960784313725,
0.701960784313725);
ENDSEC;
END-ISO-10303-21;
